<svg xmlns="http://www.w3.org/2000/svg" viewBox="0 0 255.14 758.4"><defs><style>.cls-1{fill:#aa8200;}.cls-2{fill:#b48e00;}.cls-3{fill:#a97c50;}.cls-4{fill:#603913;}.cls-5{fill:#776500;}.cls-6{fill:#414042;}.cls-7{fill:#58595b;}.cls-8{fill:#8b5e3c;}.cls-9{fill:#fff;}.cls-10{fill:#3c2415;}.cls-11{fill:#9e1f63;}.cls-12{fill:#9d7dba;}.cls-13{fill:#8742a6;}.cls-14{fill:#c5b3e4;}.cls-15{fill:#e6e7e8;}</style></defs><title>annoy</title><g id="Layer_1" data-name="Layer 1"><path class="cls-1" d="M250,122.82c-.26,4.14-1.87,8.08-2.94,12.06A85.78,85.78,0,0,0,244.7,148a70.53,70.53,0,0,0,2.41,26.72c2.44,8.74,5.23,16.84,5.35,26,.13,9.41-1.38,18.68-3,27.93h19.29a104.36,104.36,0,0,1-4.17-14.08c-.46-2.11-.88-4.25-1.17-6.4a14.94,14.94,0,0,1-.33-3.39c-.07.58-.56.9.27-.32,2.8-4.11,7.48-7.7,10.95-11.28L286.17,181,269.1,174c.85,9.56-2,19.43-2.82,29a235.07,235.07,0,0,0-.63,30.26c.4,9.62,13.56,14,18.63,5q9.33-16.39,19.84-32l-18.64-5a34.31,34.31,0,0,1-.94,13.08l19.28,5.32a46.31,46.31,0,0,1,4.56-11.7c.49-.85,5.49-7.74,5.54-7.67q-5.32-.64-1.9.91l1.43,1.45a36.37,36.37,0,0,1,2.56,3,43.11,43.11,0,0,1,5.81,10.5c1.76,4.65,5.76,7.95,11,7.16,4.58-.69,9.06-4.78,8.67-9.82l-1.52-20L320.3,196a114.4,114.4,0,0,0,20.61,36.52c3.93,4.72,13.08,3.47,15.71-2,5.44-11.36,2.69-25.7-.31-37.49-2.8-11-8.65-20.23-19.5-24.43-5.16-2-10.82,2.25-12.3,7-3.71,11.86-2.83,24.67.89,36.43,1.73,5.44,3.68,11.79,7.8,15.9a13.14,13.14,0,0,0,18.74-.16c5.38-5.71,2.06-18.09-7.07-17.07a23.63,23.63,0,0,1-3.57.25q3.88,9.4,4.66,3.64c1.08-1.92,1.46-4.78,2.21-6.89,1.43-4,3.07-7.88,4.7-11.78,3.7-8.88,7.1-17.86,10-27.05,2.74-8.8,5.44-18.06,4.47-27.37-1-9.63-4.85-18.87-7.83-28-4-12.19-23.29-7-19.29,5.32,3,9.14,8.21,19.57,7.25,29.37-1,10.55-5.64,21.47-9.37,31.31s-8.6,19.53-11.38,29.79c-1.46,5.38-1.76,10.75,1.68,15.42,3.86,5.25,10.33,6.69,16.51,6L337.8,213.6l-.75.8,4.41-2.57,2-.13,4.41,2.57c-1.59-1.44-2.28-4.76-2.93-6.73a62,62,0,0,1-2.42-9.47,36.89,36.89,0,0,1,1.25-17.18l-12.3,7c3.59,1.39,5,8.37,5.84,11.76A87.24,87.24,0,0,1,339.28,211c.27,2.7,1.28,6.88.07,9.41l15.7-2a88,88,0,0,1-15.47-27.7c-1.6-4.69-5.89-7.93-11-7.16-4.58.69-9.06,4.79-8.67,9.82l1.52,20,19.65-2.66c-4.52-11.88-14.41-30.57-29.48-30-8.2.3-13.45,6.57-17.8,12.79a63.71,63.71,0,0,0-9.29,20.75c-3.18,12.48,15.87,17.75,19.28,5.32a49.92,49.92,0,0,0,1.66-18.4c-1-9.82-12.83-13.67-18.63-5.05Q276.33,211.72,267,228.11l18.63,5a235.07,235.07,0,0,1,.63-30.26c.84-9.53,3.67-19.38,2.82-29-.73-8.22-10.61-13.71-17.07-7.07l-13.92,14.31c-4.36,4.49-10.21,9.08-13,14.76-3.05,6.16-1.71,12.93-.62,19.43a103.19,103.19,0,0,0,5,18.59c1.54,4.18,5,7.34,9.64,7.34,4.09,0,8.92-3.07,9.65-7.34,1.65-9.73,3.35-19.54,3.64-29.42A92.66,92.66,0,0,0,268,174.81c-2.64-8.66-4.46-16.81-3.4-25.92,1-8.9,4.87-17.07,5.43-26.07.8-12.85-19.21-12.81-20,0Z" transform="translate(-181.04 -77.93)"/><path class="cls-2" d="M303.15,79c-4.17,1.3-7.28,4.86-11.49,5.85s-8.44-1.86-12.74-2.11c-8.8-.51-14.63,6.22-19.35,12.68-2,2.78.23,6.39,3,7.34a70.1,70.1,0,0,0,7.09,2.07L271,95a51.38,51.38,0,0,0-8.59.29c-6.31.73-6.39,10.74,0,10A51.38,51.38,0,0,1,271,105c5.62.27,6.81-8.52,1.33-9.82a73.8,73.8,0,0,1-7.1-2.07l3,7.35c2-2.77,4.68-6.75,8.3-7.58,3.31-.75,6.59,1.3,9.78,1.89a18.4,18.4,0,0,0,9.53-.77c3.63-1.26,6.4-4.24,10-5.37,6.12-1.92,3.5-11.58-2.66-9.64Z" transform="translate(-181.04 -77.93)"/><path class="cls-3" d="M364.38,316.59c.47,10.41,5.47,20.41,8.47,30.41,17,42,42,80,44.32,126.24l-.23-2c0,10.38-11.3,19.82-10.08,30.18a2.33,2.33,0,0,0,.92,1.81c1.67,1.14,4.55-.11,5.68-1.52s2-3.22,4.26-3.67a106.77,106.77,0,0,0,1.71,20.15c.34,1.91,1.41,4.27,4.23,4.46,2.56.16,4.32-1.66,5.33-3.26,4.75-7.55,5.71-20.39,5.71-20.39,0-10.37,0-15.55-2-23.52-6.7-26.13-1.55-42.37-8.84-81.52-7.91-42.48-15.79-33.14-22-72,0,0-6.83-42.76-19-63a81.72,81.72,0,0,0-10.5-13.5c-3.63-3.67-7.71-7.8-13.5-10.5-10.09-4.72-16-.72-23-3-6.6-2.14-14.43-9.88-18.83-35.41a36,36,0,0,1-23.58-1.35c3.77,12.9,2.33,25.44-4.61,31.16-3.93,3.24-10.64,5.13-11.47,5.36a40,40,0,0,1-12.25,1.36c-11.13-.18-32.34,19.06-44,48.78-10.1,25.79-2.51,32.7-13.27,68-5.51,18.05-9.56,22.89-14.17,35.34-7.57,20.41-13.13,51.47-2.41,96.88a31.33,31.33,0,0,0-8.8,17.66,28.85,28.85,0,0,0,6,21.49c.88,1,3,3.55,5.6,3.43a4.3,4.3,0,0,0,2-.58,6.1,6.1,0,0,0,2.48-4.11c1.52-6.89-.37-20.51,1.79-21.25.73-.25,2,.94,2.7,1.56,1,1,1,1.47,1.79,2.31,1.61,1.73,4.56,2.62,6,1.61a2.82,2.82,0,0,0,1-1.92c.69-4.66-8.94-27.83-10.6-31.8l-.93.78A194.84,194.84,0,0,1,212.85,416c13-33,33-64,40-99.41a19.59,19.59,0,0,1-4.71-9.56c-1.86-11.24,8.62-17.91,8.3-31.41a27.51,27.51,0,0,0-2.36-10.38q1.18,5.19,2.36,10.38L248.27,300c-.09,1.18-.81,13.75,9.39,22.15,9.6,7.9,20.91,5.59,22.28,5.29H266.41a67.28,67.28,0,0,1,1.47,22.33c-.95,9.13-3.22,16.28-6,21.48-7.08,13.3-17.55,24.36-23.67,38.23-14.88,33.65-10.4,73.41-4.14,99.45A191,191,0,0,0,254.62,560v-.94c-15.83,28.57-17.94,63.13-12.34,95.3.08.43.85,4.12,2,9a392.71,392.71,0,0,0,12.54,44.92c4.45,12.62,11.08,24.28,15.77,36.81,8.05,21.49-18.31,40.24-14.34,64.78,1,6,3.39,11.83,7.65,16.12s10.47,6.83,16.44,5.88c7.54-1.21,13.41-7.7,15.93-14.91s2.29-15.07,1.69-22.69c-1.22-15.51-9.33-30.52-9.44-45.33-.11-14.57,3.72-30.18,5.63-44.67,1.93-14.74,3.79-29.4,4.48-44.26s1-22.4.42-32.35a215.29,215.29,0,0,0-9.19-50.23l-3.93,5.1a31,31,0,0,0,6.23-12.51,30.6,30.6,0,0,0,.69-9.79c2.47-8.74,4.76-18,6.75-27.86A379.21,379.21,0,0,0,309,465.65l-3.06,38.83q6,28.44,12.11,56.89a23.45,23.45,0,0,0-.25,8.69A24,24,0,0,0,324,582.57L319.19,575a347.26,347.26,0,0,0-2.34,92v9c0,3,2,7,2,10,0,21.35,10.68,42.17,10.92,63,.23,20.53-4.47,41.65-4,62.6.09,4.58.28,9.24,1.86,13.54s4.78,8.23,9.16,9.55c6.61,2,13.56-2.49,17.67-8,9.82-13.27,8.82-31.57,5.34-47.7-2.2-10.2-8.58-22.26-8.94-32.52-.33-9.75,4.89-21.88,7-31.45,11-36,21-72,20-109-1-16-5-33-14.72-45.58l-8.48,11.45C365.85,556,373.85,539,379.85,520c4-15,7-30,8-45,1-11,0-23-1-34-1-8-2-17-5-25-6-13-14-25-22-37-12-16-14-35-8.78-53.45l-14.79,1.31c1.37.3,12.68,2.61,22.28-5.28,10.2-8.41,9.48-21,9.39-22.15l-8.18-24.36q1.17-5.2,2.36-10.39" transform="translate(-181.04 -77.93)"/><path class="cls-4" d="M363.13,316.59c.88,12.72,6.32,25.76,11.28,37.39,5.48,12.86,11.59,25.43,17.44,38.12,11.91,25.82,22.45,52.44,24.07,81.14h2.5l-.23-2a1.25,1.25,0,0,0-2.5,0c-.5,10.1-9.49,17.44-10.13,27.49-.16,2.59,0,5.45,3,6.12,4.65,1,5.94-4.37,9.48-5.61l-1.58-1.2a116,116,0,0,0,.86,14.67c.37,2.9.36,6.88,2.4,9.24,4.23,4.88,9.56-.07,11.6-4.21,5.42-11,5.68-25.14,3.74-37-1.22-7.51-3.38-14.73-4.19-22.33-.72-6.65-.93-13.34-1.19-20a298.43,298.43,0,0,0-6.1-52c-2.58-11.93-6.77-22.63-11.84-33.64-4.76-10.34-7-21.24-8.92-32.41a318.5,318.5,0,0,0-6.93-31.13c-3.78-13.63-8.43-27.23-17.31-38.44-4.38-5.53-9.46-11-15.42-14.8a28.59,28.59,0,0,0-12.27-4.5c-4.14-.44-8.33.47-12.45-.18-14.52-2.27-18.18-23.56-20.23-35a1.25,1.25,0,0,0-1.53-.87A36.16,36.16,0,0,1,293.77,194c-.91-.37-1.77.69-1.54,1.53,2.85,10.36,4.14,25.36-6.78,31.59-6.77,3.86-13.71,4.2-21.28,4.75-12.14.88-22.82,13.77-29.44,22.68-10.24,13.8-17.95,30.45-20.25,47.56-.83,6.19-1,12.43-1.71,18.64a157.71,157.71,0,0,1-6.39,29.67c-4.66,15-12.65,28.7-17,43.84a150.46,150.46,0,0,0-5.17,47.55A207.94,207.94,0,0,0,188,472.92c.35,1.77,2.39,7.08,1.91,8.79-.26.9-1.89,2.17-2.46,2.93a32.17,32.17,0,0,0-5.35,10.71,30.14,30.14,0,0,0,2.75,22.75c2.13,3.84,6.43,9.8,11.52,7.21,5.91-3,4-14.82,4.06-20.06,0-.9,0-1.8.07-2.69.13-1.67-.32-2.31,1-1.91s2.37,3,3.6,3.83c1.84,1.31,4.81,2.14,6.68.49,3.7-3.27-.86-12.48-2.07-15.92-2.23-6.37-4.74-12.65-7.35-18.89a1.28,1.28,0,0,0-2.09-.55l-.92.78,2.13.89a200.21,200.21,0,0,1,10-48c5.18-15,12.26-29.21,19.06-43.49C236.91,366.46,243.19,353,248,339c1.24-3.6,2.38-7.24,3.39-10.92.83-3,3.16-8.27,2.68-11.34-.33-2.16-2.51-3.89-3.43-5.94a15.62,15.62,0,0,1-1-10.08c1.33-5.79,5.07-10.73,6.82-16.39a28.45,28.45,0,0,0-1.14-19.45,1.25,1.25,0,0,0-2.41.67c.58,2.55,1.45,5.19,1.77,7.79.41,3.34-.88,6.3-1.93,9.43-1.78,5.3-4.84,11.34-5.67,16.86-.62,4.16.54,9,2.09,12.85,4.95,12.2,18.34,18.84,31.12,16.12a1.25,1.25,0,0,0-.33-2.45H266.41a1.26,1.26,0,0,0-1.21,1.58,64.4,64.4,0,0,1-7.73,48.63c-8.86,14.32-19.18,26.88-24.41,43.17-9.45,29.45-7.16,62.2.34,91.83a196.26,196.26,0,0,0,20.14,49.3,1.26,1.26,0,0,0,2.33-.63v-.94a1.26,1.26,0,0,0-2.33-.63c-18.21,33.49-18.08,72.46-9.71,108.75,4.56,19.74,10.07,39.23,18.52,57.69,4.07,8.88,10.54,18.85,10.48,28.88,0,7.81-3.67,15.1-7,22-6.56,13.51-12.85,27.66-6.51,42.57s24.85,20.62,35.73,7c12.14-15.18,5.48-38.46.7-55.11-3.08-10.69-4.56-20.74-3.5-31.87,1.08-11.31,3.54-22.44,5.06-33.69,3.05-22.6,5.49-45.44,5.27-68.28A210.84,210.84,0,0,0,293,577.14a1.27,1.27,0,0,0-2.29-.3l-3.93,5.1c-.86,1.11,1.07,2.62,2,1.52a33.51,33.51,0,0,0,7.41-20.22c.19-5.52,2.09-10.8,3.39-16.16q2.08-8.57,3.77-17.22a385.75,385.75,0,0,0,6.89-64.21c0-1.63-2.37-1.59-2.5,0l-2.76,35c-.42,5.39,1,10.32,2.16,15.59l3.64,17.07,3.43,16.12c1.07,5,2.55,9.92,2.13,15a25.22,25.22,0,0,0,6.8,19,1.26,1.26,0,0,0,2-1.52l-4.83-7.53c-.52-.81-2.11-.83-2.29.3a354.86,354.86,0,0,0-4.37,57.22c.06,10,.55,20.07,1.49,30.06.43,4.69.19,9.33.5,14,.28,4.32,1.89,8.29,2.06,12.67.79,20,10,38.61,10.81,58.61.84,20.88-4.15,41.55-4,62.43.05,7.6.27,16.31,5.78,22.21,4.33,4.64,10.56,5.6,16.26,3,14.32-6.6,17.64-25.55,16.84-39.59a94.45,94.45,0,0,0-4.51-24.21c-2.94-8.91-7.29-18-6.69-27.64.58-9.31,4.37-18.43,6.74-27.39,2.72-10.24,6.09-20.31,8.84-30.54,6-22.24,10.63-45,11.35-68.07.62-20-2.57-41.25-14.86-57.66a1.28,1.28,0,0,0-2.16,0l-8.48,11.45,2.16,1.26c19.5-27.92,30.35-60.83,33.16-94.69a194.38,194.38,0,0,0-2.59-49.64C383.22,410.77,372.62,396,363,381.5c-5.37-8.09-10.23-15.78-12.24-25.46-2.08-10.05-1.16-20.31,1.51-30.16a1.27,1.27,0,0,0-1.21-1.58l-14.79,1.31c-1.31.11-1.81,2.14-.33,2.45,12.78,2.73,26.17-3.91,31.12-16.12,1.49-3.66,2.79-8.65,2.11-12.68-.91-5.35-3.64-10.94-5.37-16.09-1-3-2.69-6.29-2.44-9.5.21-2.85,1.33-5.87,2-8.66.36-1.56-2.05-2.23-2.41-.66-.76,3.34-2.56,7.64-2.36,11,.25,4.13,3.1,9.22,4.41,13.12,2,5.84,4.44,10.77,3.36,16.94a25,25,0,0,1-29.72,20.19l-.33,2.46,14.79-1.31-1.2-1.58c-3.84,14.13-3.86,29.08,2.05,42.66,3.32,7.62,8.56,14.23,13.08,21.16a240.17,240.17,0,0,1,13.74,23.39c4.22,8.43,5.56,17.68,6.66,27A219,219,0,0,1,387,465.24c0,18.2-3.25,37-8.37,54.43a178.73,178.73,0,0,1-25.07,51.57c-.93,1.33,1.22,2.53,2.16,1.26l8.48-11.45h-2.16c22.73,30.35,15,74.73,7,108.86-4.25,18.15-9.62,36.08-14.95,53.93-2.18,7.28-4.81,14.9-4.55,22.61.27,7.94,3.48,15.54,6,22.95,5.21,15.12,8.27,33.55,2.08,48.83-3.29,8.11-12.77,20.08-22.79,14.3-8.81-5.07-8.09-17.92-7.92-26.64.36-19,4.36-37.84,4-56.88-.31-18-7.66-34.86-10.13-52.54-.63-4.49-.3-9.15-1.23-13.57-.56-2.68-1.43-5-1.56-7.8-.11-2.39.08-4.8,0-7.2-.35-10.07-1.68-20.1-1.91-30.2a349.62,349.62,0,0,1,4.21-62.33l-2.29.3,4.83,7.53,2-1.51a23.46,23.46,0,0,1-5.2-8.9c-1.28-4.2-.26-7.63-.46-11.75-.24-4.93-2.2-10.33-3.23-15.17l-3.44-16.12c-2.24-10.51-5.72-21.29-4.87-32.07s1.69-21.35,2.53-32h-2.5a382,382,0,0,1-6.44,61.64q-2.88,15.23-7,30.17c-1.12,4-.42,8.14-1.38,12.27a30.14,30.14,0,0,1-5.92,12l2,1.51,3.93-5.1-2.28-.29c10.47,34.26,10.74,69.06,6.94,104.41-1.16,10.82-2.49,21.63-4.28,32.36-1.56,9.36-3.32,18.73-3.88,28.23-1.15,19.68,8.85,37.3,9.6,56.8.37,9.7-.92,20.5-8.79,27.18-9.81,8.33-22.81,2.38-28-8.08-7.89-16,1-31.24,7.66-45.67,2.5-5.38,4.81-11,5.33-17,.63-7.2-2.21-13.54-5-20-4.36-10-9.28-19.65-12.85-30-3.1-9-5.76-18.07-8.11-27.25-4.69-18.36-8.46-36.67-8.5-55.71,0-22,4.4-44,15-63.43l-2.33-.63V560l2.33-.63a199,199,0,0,1-26-89.3c-.82-17.07.69-34.43,6-50.72,5.63-17.1,17.29-30,26-45.34,8-14.09,9.43-31.34,5.86-47l-1.2,1.59h13.53l-.33-2.46A25,25,0,0,1,249.89,306c-1.08-6.2,1.38-11.06,3.36-16.95l2.52-7.49c.57-1.7,1.83-3.89,1.89-5.63.11-3.47-1.59-7.64-2.36-11.05l-2.41.67a26.63,26.63,0,0,1,.26,20.57c-2,5-5.21,9.66-6.17,15.08a18.49,18.49,0,0,0,2.37,12.58c1.88,3.24,1.88,4.74,1,8.51q-1.45,6-3.34,11.88c-9.42,29.49-26,56-36.65,85A201.93,201.93,0,0,0,199,471.28c-.1,1.18,1.39,1.51,2.13.88l.93-.78-2.09-.55c2,4.82,4,9.67,5.78,14.56,1.11,3,2.18,5.95,3.12,9,.45,1.44,2.45,6,1.69,7.54-1.55,3.12-4.58-.39-5.87-1.65-.85-.82-1.79-2.1-3-2.5a2.2,2.2,0,0,0-3.08,1.21c-.93,1.68-.64,4.46-.66,6.29-.05,4.13.2,8.3-.31,12.4-.48,3.84-2.87,7.51-7,4.1a12.47,12.47,0,0,1-2-2.42,27.58,27.58,0,0,1-3.34-25.55c1.5-4.08,4.23-6.75,6.46-10.31,1.7-2.72-.27-6.26-.89-9.35-1.19-5.81-2.16-11.68-2.87-17.57a181.75,181.75,0,0,1-1.27-28.08,137.46,137.46,0,0,1,7.74-41.59c2.43-6.79,5.69-13.21,8.54-19.83a172.65,172.65,0,0,0,8.58-25.64c3.5-13.79,3.46-27.7,5.8-41.61,2.91-17.26,11.34-34.16,22.42-47.61,5-6,10.82-12,17.85-15.63,6.07-3.13,12.69-1.75,19.18-3.37s13.24-4.48,16.68-10.48c4.79-8.33,3.61-18.94,1.18-27.8l-1.54,1.54a38.42,38.42,0,0,0,24.24,1.35l-1.54-.88c2,11,4.67,24.68,13.42,32.57a17,17,0,0,0,8.73,4.28c3,.48,5.92.09,8.88,0a26.56,26.56,0,0,1,14.37,3.86c23.59,14.19,31.16,44.71,36.55,69.67,1.76,8.16,2.92,16.43,4.64,24.59,2.13,10.05,5.83,19,10.12,28.27,12.49,26.9,13.63,57.47,15,86.6a163.81,163.81,0,0,0,2.05,20.25c1.44,8.19,3.68,15.9,3.84,24.29a63.82,63.82,0,0,1-2.05,19.11,24.09,24.09,0,0,1-2.51,6.64,10,10,0,0,1-.95,1.7c-6.5,6.37-7.14-.08-7.59-2.72a107.47,107.47,0,0,1-1.35-18,1.26,1.26,0,0,0-1.58-1.21c-1.83.64-7.86,6.69-9.37,3.24-1.26-2.87,2.27-8.84,3.46-11.16,2.92-5.7,6.39-11.09,6.71-17.67h-2.5l.23,2c.19,1.55,2.6,1.63,2.5,0-1.51-26.82-10.64-51.94-21.58-76.21-5.62-12.46-11.63-24.74-17.18-37.23-3-6.8-5.63-13.64-8.13-20.64-2.63-7.38-5.36-14.68-5.9-22.57-.11-1.59-2.61-1.61-2.5,0Z" transform="translate(-181.04 -77.93)"/><path class="cls-2" d="M284.38,184.73v86.69c0,6.43,10,6.44,10,0V184.73c0-6.43-10-6.44-10,0Z" transform="translate(-181.04 -77.93)"/><path class="cls-5" d="M285.94,183.35c.94,3.5,2.91,7.31,6.69,8.12v-1a8,8,0,0,1-6.27-.44.54.54,0,0,0-.9.52,13.82,13.82,0,0,0,2.37,6.06c.26.33.93.77,1.12,1.14l1.18.84q1.9.6-3.72,0c-.36-.26-.79.1-.81.47-.35,5.35.56,7.61,5.55,9.81.63.28,1.18-.65.54-.93-1.78-.78-4.07-1.86-4.84-3.85,0,.06-.58-3.81-.22-4a5.73,5.73,0,0,0,1.74.16c1.21-.22,2.38-.6,3.58-.9a.55.55,0,0,0,.13-1c-3.6-1.62-4.79-4.38-5.58-8l-.9.53c2.08,1.81,4.77,1.15,7.31.72a.54.54,0,0,0,0-1c-3.45-.74-5.14-4.42-5.93-7.37a.54.54,0,0,0-1,.29Z" transform="translate(-181.04 -77.93)"/><path class="cls-5" d="M291.3,209.14c-1.69-.08-3.36.31-5-.33-.46-.18-.73.39-.57.75a99.72,99.72,0,0,0,4.13,9.2c.38.67,1.5,1.85,1.73,2.48.51,1.41-6.42-5.43-4.57-2.56a.51.51,0,0,0-.93.39,20.24,20.24,0,0,0,3.37,7.07,31.41,31.41,0,0,0,2.33,2.63c-.45.79-4.87-2.38-5.24-2.66a.51.51,0,0,0-.79.61c1,2.23,1.87,5.87,3.53,7.61a7.4,7.4,0,0,1,.81.75l1,.38q2.24.27-3.87.81a.51.51,0,0,0-.87.36,10.23,10.23,0,0,0,3.27,7.86c.45.47,1.17-.25.72-.72s-4.17-4.74-2.67-5.52c-.52.27,2.43.33,2.17.38,1.66-.33,2.42-2.27,2.94-3.62a.51.51,0,0,0-.49-.65c-3,.27-4.69-6.06-5.64-8.15l-.79.62a14.55,14.55,0,0,0,7.62,3.27.51.51,0,0,0,.36-.87,23.07,23.07,0,0,1-5.22-6.29c-.45-.87-.82-3.16-1.83-2.81-.44.15,2.48,1.5,2.12,1.34a17.48,17.48,0,0,0,4.05,1c.47.08.89-.47.5-.85-2.67-2.55-3.93-5.9-5.37-9.22-.22-.5-1-1.86-.8-2.14s3.67-.1,4-.08c.65,0,.65-1,0-1Z" transform="translate(-181.04 -77.93)"/><path class="cls-5" d="M291.82,244.68a9.11,9.11,0,0,1-5.92,2.67.6.6,0,0,0-.51.9q3.23,4.62,6.68,9.05l.43-1c-1.67,0-5.14.56-6.22-1.22l-.94.73c.92,1.19,2.66,2.72,3.38,4l1.22,1.23a3.44,3.44,0,0,1-4.42.89c-.4-.1-.91.29-.74.74a14.25,14.25,0,0,0,5.35,6.89c.64.43,1.23-.6.6-1-1.09-.75-4.31-3-4-4.41.45-1.76-1.75.39,1.14-.6a29.13,29.13,0,0,0,4-1.19.6.6,0,0,0,.12-.94,54.23,54.23,0,0,1-5.87-6.44c-.42-.54-1.29.16-.94.73,1.54,2.51,4.65,1.86,7.26,1.81a.61.61,0,0,0,.42-1c-.79-1-5.95-6.75-5.49-8,.15-.41,4.46-2.37,5.24-3,.6-.48-.25-1.32-.85-.85Z" transform="translate(-181.04 -77.93)"/><path class="cls-2" d="M272.89,178.19v86.69c0,6.43,10,6.45,10,0V178.19c0-6.43-10-6.44-10,0Z" transform="translate(-181.04 -77.93)"/><path class="cls-5" d="M280.29,176.53c-.79,2.94-2.48,6.62-5.93,7.36a.54.54,0,0,0,0,1c2.55.44,5.23,1.09,7.31-.72l-.9-.52c-.78,3.64-2,6.4-5.58,8a.55.55,0,0,0,.13,1c.15,0,5.25.68,5.32.74.29.23,0,2.36-.09,2.86-.61,2.86-2.51,3.93-5,5-.64.28-.09,1.21.54.93,5-2.19,5.9-4.46,5.55-9.81,0-.37-.45-.72-.81-.47-3.74.43-5,.44-3.75.05a2.47,2.47,0,0,0,1.21-.85c.3-.41.79-.73,1.12-1.14,1.43-1.75,1.91-3.91,2.37-6.06a.54.54,0,0,0-.9-.52,7.92,7.92,0,0,1-6.27.44v1c3.79-.81,5.75-4.62,6.69-8.12a.54.54,0,0,0-1-.28Z" transform="translate(-181.04 -77.93)"/><path class="cls-5" d="M276,203.62c.41,0,3.77-.2,4,.08s-.79,2.12-.8,2.14c-1.46,3.35-2.66,6.64-5.36,9.22a.51.51,0,0,0,.49.85,16.53,16.53,0,0,0,4.05-1c.27-.13,2-1.33,2.12-1.34-1.15.08-.58.42-1.83,2.81a22.89,22.89,0,0,1-5.22,6.29c-.3.28-.08.92.36.87a14.6,14.6,0,0,0,7.62-3.27l-.79-.62c-.89,2-2.64,8.43-5.64,8.15a.51.51,0,0,0-.49.65c.52,1.35,1.29,3.29,2.94,3.62-.26-.05,2.69-.11,2.17-.38,1.5.78-2.15,5-2.67,5.52s.27,1.2.72.72a10.2,10.2,0,0,0,3.27-7.86.51.51,0,0,0-.87-.36c-4-.35-5.36-.62-3.94-.8a2.41,2.41,0,0,0,1-.39c0,.07,1.68-1.65.81-.75,1.58-1.64,2.61-5.57,3.53-7.61a.5.5,0,0,0-.79-.61c-.19.14-4.6,3.4-5.24,2.66a28.4,28.4,0,0,0,2.33-2.63,19.9,19.9,0,0,0,3.37-7.07.51.51,0,0,0-.93-.39c.77-1.2-4.67,3.19-4.57,2.56-.09.57,2-2.89,1.73-2.48a93.59,93.59,0,0,0,4.13-9.2c.16-.36-.11-.93-.57-.75-1.65.64-3.32.25-5,.33-.66,0-.66,1.05,0,1Z" transform="translate(-181.04 -77.93)"/><path class="cls-5" d="M274.61,239c.85.67,5,2.46,5.23,3,.46,1.2-4.91,7.22-5.49,8a.61.61,0,0,0,.42,1c2.62.05,5.71.71,7.26-1.81.34-.57-.52-1.27-.94-.73a54.23,54.23,0,0,1-5.87,6.44.6.6,0,0,0,.12.94,23.92,23.92,0,0,0,4,1.19,13.09,13.09,0,0,1,1.45-.11c.73,1.2-3.85,4.83-4.27,5.12-.63.44,0,1.47.6,1a14.25,14.25,0,0,0,5.35-6.89c.17-.45-.33-.84-.74-.74a2.63,2.63,0,0,1-3.4-.25q-2.18-.67.2-1.87c.68-1.4,2.43-2.79,3.39-4l-.94-.73c-1.09,1.78-4.56,1.25-6.23,1.22l.43,1q3.45-4.44,6.68-9a.61.61,0,0,0-.51-.91,9.11,9.11,0,0,1-5.92-2.67c-.6-.47-1.45.37-.84.85Z" transform="translate(-181.04 -77.93)"/><path class="cls-2" d="M261.9,166.94v86.69c0,6.43,10,6.44,10,0V166.94c0-6.43-10-6.44-10,0Z" transform="translate(-181.04 -77.93)"/><path class="cls-5" d="M263.47,165.56c.93,3.5,2.9,7.31,6.68,8.12v-1a8,8,0,0,1-6.27-.44.54.54,0,0,0-.9.52,13.82,13.82,0,0,0,2.37,6.06c.26.33.94.77,1.12,1.14l1.18.84q1.91.6-3.72,0c-.35-.26-.78.1-.81.47-.35,5.35.57,7.61,5.55,9.81.63.28,1.18-.65.55-.93-1.78-.78-4.08-1.86-4.85-3.85,0,.06-.58-3.81-.22-4a5.73,5.73,0,0,0,1.74.16c1.21-.22,2.38-.6,3.58-.9a.55.55,0,0,0,.13-1c-3.6-1.62-4.79-4.38-5.58-8l-.9.53c2.08,1.81,4.77,1.15,7.31.72a.54.54,0,0,0,0-1c-3.45-.74-5.14-4.42-5.93-7.37a.54.54,0,0,0-1,.29Z" transform="translate(-181.04 -77.93)"/><path class="cls-5" d="M268.82,191.35c-1.69-.08-3.36.31-5-.33-.46-.18-.73.39-.57.75a99.72,99.72,0,0,0,4.13,9.2c.38.67,1.5,1.85,1.73,2.48.51,1.41-6.42-5.43-4.56-2.56a.51.51,0,0,0-.93.39,20,20,0,0,0,3.36,7.07A31.41,31.41,0,0,0,269.3,211c-.45.79-4.87-2.38-5.23-2.66a.51.51,0,0,0-.8.61c1,2.23,1.87,5.87,3.53,7.61a7.4,7.4,0,0,1,.81.75l1,.38q2.24.27-3.87.81a.52.52,0,0,0-.87.36,10.23,10.23,0,0,0,3.27,7.86c.45.47,1.17-.25.72-.72s-4.17-4.74-2.67-5.52c-.51.27,2.43.33,2.17.38,1.66-.33,2.42-2.27,2.94-3.62a.51.51,0,0,0-.49-.65c-3,.27-4.69-6.06-5.63-8.15l-.8.62a14.55,14.55,0,0,0,7.62,3.27.51.51,0,0,0,.36-.87,23.07,23.07,0,0,1-5.22-6.29c-.45-.87-.82-3.16-1.83-2.81-.44.15,2.49,1.5,2.12,1.34a17.61,17.61,0,0,0,4.05,1c.47.08.89-.47.5-.85-2.67-2.55-3.92-5.9-5.37-9.22-.22-.5-1-1.86-.8-2.14s3.67-.1,4-.08c.65,0,.65-1,0-1Z" transform="translate(-181.04 -77.93)"/><path class="cls-5" d="M269.34,226.89a9.08,9.08,0,0,1-5.91,2.67.6.6,0,0,0-.52.9q3.24,4.62,6.68,9l.43-1c-1.67,0-5.14.56-6.22-1.22l-.94.73c.92,1.19,2.66,2.72,3.38,4l1.22,1.23a3.44,3.44,0,0,1-4.42.89c-.4-.1-.91.29-.74.74a14.25,14.25,0,0,0,5.35,6.89c.64.43,1.24-.6.61-1-1.1-.75-4.32-3-4-4.41.45-1.76-1.75.39,1.14-.6a29.13,29.13,0,0,0,4-1.19.6.6,0,0,0,.12-.94,54.23,54.23,0,0,1-5.87-6.44c-.42-.54-1.29.16-.94.73,1.54,2.51,4.66,1.86,7.26,1.81a.61.61,0,0,0,.42-1c-.79-1-5.94-6.75-5.49-8,.15-.41,4.46-2.37,5.24-3,.6-.48-.25-1.32-.85-.85Z" transform="translate(-181.04 -77.93)"/><path class="cls-2" d="M252.26,162.13c-3.34,7.32-5.7,15-6,23.06-.29,8.52,2.19,15.94,5.66,23.56,6.1,13.38,4.28,27.64-.19,41.27-2,6.13,7.64,8.75,9.64,2.65,4.29-13.08,6.48-27.46,2.39-40.9-2.09-6.84-6.13-12.82-7.17-20-1.21-8.44.78-16.93,4.28-24.6,2.65-5.81-6-10.9-8.64-5.05Z" transform="translate(-181.04 -77.93)"/><path class="cls-5" d="M254.27,162c.08,3.49,1,8.19,4.69,9.53l.15-1.05a8,8,0,0,1-6-1.91.54.54,0,0,0-1,.28,13.88,13.88,0,0,0,.86,6.45,10.78,10.78,0,0,1,.82,1.37l1,1.1c1.2.62,0,.32-3.59-.9a.55.55,0,0,0-.91.24c-1.62,5.15-1.19,7.59,3.18,10.94.55.42,1.08-.52.54-.93a4.31,4.31,0,0,1-2.8-4.47,4.53,4.53,0,0,1-.28-4c.66-.48-.32.33.64-.1.43-.2,4.44.3,4.81.3s.77-.62.38-.92c-3.11-2.43-3.62-5.39-3.53-9.11l-1,.27c1.59,2.25,4.35,2.26,6.93,2.43.64.05.67-.86.14-1.06-3.17-1.16-3.84-5.63-3.9-8.49,0-.69-1.1-.69-1.08,0Z" transform="translate(-181.04 -77.93)"/><path class="cls-5" d="M254.18,189.53c-1.59.26-3.18,1-4.83.73-.38-.06-.86.35-.57.75,1.84,2.56,3.58,5.26,5.59,7.69.62.76,2.24,1.8,2.6,2.58.59,1.25-7-3.53-5-1.55a.51.51,0,0,0-.8.61,19.2,19.2,0,0,0,4.64,6.09,25.26,25.26,0,0,1,2.48,1.89c1.94,2.25-5.06-1.14-5.24-1.22-.41-.2-1,.24-.7.69,1.38,1.87,3.12,5.42,5.07,6.77-.53-.37,1.6.94,1.39.66l.65.1c1.48-.21.28.34-3.57,1.66a.52.52,0,0,0-.85.5c.56,3.19,2.21,5.18,4.84,7,.54.37,1.05-.51.52-.88a33.09,33.09,0,0,1-4.56-5.29,12.8,12.8,0,0,0,2,.63c2.2-.17,2.84-2.48,3.12-4.3a.52.52,0,0,0-.62-.63c-1.67.52-6.21-5.44-6.34-5.33s6.21,1,6.54.92a.52.52,0,0,0,.26-1,20.67,20.67,0,0,1-8.75-8.81l-.8.61c2,2,4.69,1.86,7.33,1.76a.51.51,0,0,0,.26-.94,15.81,15.81,0,0,1-5-4.85c-.42-.56-3.2-3.76-3.19-4.44s-.41-.16-.2-.54,3.47-.84,3.93-.92c.65-.1.37-1.08-.27-1Z" transform="translate(-181.04 -77.93)"/><path class="cls-5" d="M262,226.35a9.17,9.17,0,0,1-5.92,2.68.6.6,0,0,0-.51.9q3.23,4.6,6.68,9l.42-1c-1.66,0-5.13.56-6.22-1.21l-.94.72c.93,1.19,2.67,2.72,3.39,4l1.22,1.24a3.44,3.44,0,0,1-4.42.88c-.41-.1-.92.29-.74.74a14.2,14.2,0,0,0,5.35,6.89c.63.44,1.23-.6.6-1-1.09-.75-4.31-3-4-4.4.45-1.77-1.75.38,1.14-.61a27.69,27.69,0,0,0,4-1.19.61.61,0,0,0,.13-.94,54.23,54.23,0,0,1-5.87-6.44c-.42-.54-1.29.16-.94.73,1.54,2.51,4.65,1.86,7.25,1.81a.61.61,0,0,0,.43-1c-.8-1-6-6.75-5.49-8,.15-.41,4.46-2.36,5.23-3,.61-.48-.24-1.32-.84-.85Z" transform="translate(-181.04 -77.93)"/><path class="cls-2" d="M347.81,165.42v86.69c0,6.43,10,6.44,10,0V165.42c0-6.44-10-6.45-10,0Z" transform="translate(-181.04 -77.93)"/><path class="cls-5" d="M355.2,163.75c-.78,2.95-2.47,6.63-5.93,7.36a.54.54,0,0,0,0,1c2.56.44,5.24,1.1,7.32-.71l-.9-.53c-.79,3.65-2,6.4-5.58,8a.55.55,0,0,0,.13,1c.14,0,5.24.68,5.32.74.29.22,0,2.36-.09,2.86-.61,2.85-2.51,3.93-5,5-.63.28-.08,1.21.55.93,5-2.19,5.9-4.47,5.55-9.81,0-.37-.46-.73-.81-.47q-5.61.63-3.76.05a2.46,2.46,0,0,0,1.22-.86c.3-.41.79-.72,1.12-1.13,1.43-1.76,1.9-3.91,2.37-6.06a.55.55,0,0,0-.9-.53,7.88,7.88,0,0,1-6.27.44v1c3.79-.8,5.75-4.61,6.68-8.11a.54.54,0,0,0-1-.29Z" transform="translate(-181.04 -77.93)"/><path class="cls-5" d="M350.89,190.84c.41,0,3.77-.19,4,.09s-.79,2.11-.8,2.14c-1.47,3.35-2.66,6.63-5.37,9.22-.39.37,0,.93.5.85a17.13,17.13,0,0,0,4.05-1c.27-.12,2-1.32,2.12-1.33-1.15.08-.58.41-1.83,2.81a23.25,23.25,0,0,1-5.22,6.29c-.31.27-.08.92.36.86a14.47,14.47,0,0,0,7.62-3.27l-.8-.61c-.88,2-2.63,8.42-5.63,8.15a.51.51,0,0,0-.49.64c.52,1.36,1.28,3.3,2.94,3.63-.26,0,2.68-.12,2.17-.38,1.49.78-2.16,5-2.67,5.52s.27,1.19.72.72a10.25,10.25,0,0,0,3.27-7.86A.51.51,0,0,0,355,217c-4.05-.36-5.36-.62-3.94-.81a2.31,2.31,0,0,0,1-.38c0,.06,1.68-1.65.82-.75,1.57-1.64,2.61-5.57,3.53-7.61a.51.51,0,0,0-.8-.62c-.18.15-4.59,3.41-5.23,2.66a28.12,28.12,0,0,0,2.33-2.62,19.71,19.71,0,0,0,3.36-7.07.51.51,0,0,0-.93-.4c.78-1.2-4.66,3.2-4.56,2.57-.09.57,2-2.9,1.73-2.49a91.52,91.52,0,0,0,4.13-9.2c.16-.35-.11-.92-.57-.74-1.65.64-3.32.25-5,.33-.65,0-.65,1,0,1Z" transform="translate(-181.04 -77.93)"/><path class="cls-5" d="M349.52,226.21c.85.67,5.05,2.47,5.24,3,.45,1.21-4.92,7.22-5.49,8a.61.61,0,0,0,.42,1c2.62.05,5.71.71,7.26-1.82.34-.56-.52-1.27-.94-.72a55.08,55.08,0,0,1-5.87,6.43.6.6,0,0,0,.12.94,23.92,23.92,0,0,0,4,1.19c.14.05,1.38-.2,1.45-.1.73,1.19-3.86,4.83-4.28,5.12-.63.43,0,1.47.61,1a14.16,14.16,0,0,0,5.35-6.89c.17-.44-.34-.83-.74-.73a2.64,2.64,0,0,1-3.41-.26c-1.44-.44-1.38-1.06.21-1.86.68-1.4,2.43-2.8,3.38-4l-.94-.73c-1.08,1.77-4.55,1.25-6.22,1.22l.43,1q3.45-4.44,6.68-9.05a.6.6,0,0,0-.52-.9,9.18,9.18,0,0,1-5.91-2.67c-.6-.47-1.45.37-.85.84Z" transform="translate(-181.04 -77.93)"/><path class="cls-2" d="M355.73,162.42c3.6,7.07,5.93,14.77,5.62,22.77-.3,7.66-3.87,14-6.05,21.18-4.12,13.54-3.17,27.91-.07,41.55,1.42,6.27,11.07,3.61,9.64-2.66-3.28-14.41-3.22-28.38,2.21-42.17,6.15-15.62,4.9-30.78-2.71-45.72-2.93-5.73-11.56-.68-8.64,5Z" transform="translate(-181.04 -77.93)"/><path class="cls-5" d="M356.41,159c1.94,3,5.06,6.06,8.87,5.64l-.27-1c-1.57.84-4.21,2.56-6.09,1.57a.54.54,0,0,0-.73.74c2.07,3.59,4.32,6,8.6,6.38l-.27-1c-1.37.87-3,2.55-4.88,2a.54.54,0,0,0-.67.66c1.35,5.23,3,7.09,8.46,7.62.69.07.68-1,0-1.07a4.33,4.33,0,0,1-4.74-2.31,4.49,4.49,0,0,1-2.34-3.22c0-.08,0-.3,0-.37s1-.11,1.2-.22c1.19-.67,2.31-1.39,3.47-2.12a.55.55,0,0,0-.27-1c-3.8-.33-5.9-2.79-7.67-5.85l-.74.74c2.38,1.26,5.05-.44,7.17-1.57.45-.24.27-1.06-.27-1-3.52.38-6.26-2.49-7.94-5.12-.37-.58-1.31,0-.93.55Z" transform="translate(-181.04 -77.93)"/><path class="cls-5" d="M367.4,185.06a44.11,44.11,0,0,1-4.82-1.41c-.4-.27-.82.17-.74.58a97,97,0,0,0,2,9.87c.07.26,1.12,2.87,1.14,2.81-.22.43-3.61-2.74-3.88-3.46-.19-.51-1-.48-1,.13a20,20,0,0,0,1.77,7.71c.51,1.11,1.84,2.55,1.22,2.82-1,.44-3.48-2.81-4.14-3.62-.35-.42-.94,0-.85.5.59,2.79,1.56,5.8,2,8.56.07.44.79.57.84.84a1.74,1.74,0,0,0,.55.34q2.28.3-4-.08a.52.52,0,0,0-.93.13,10.14,10.14,0,0,0,1.47,8.39.51.51,0,0,0,.87-.52c-.73-1.22-2.85-5.8-1.43-6-.29,0,2.05.85,2,.85,1.69.05,2.86-1.66,3.67-2.88.24-.35-.09-.72-.44-.76-2.48-.32-2.41-3.85-2.84-5.5-.82-3.11-1-1.8.06-1.28,1.74.85,3,2.21,5,2.88a.51.51,0,0,0,.57-.75c-.82-1.15-5.35-10.21-4.88-10.39-.37.14,5.07,3.39,5.59,3.61s.81-.4.58-.75c-2.06-3.08-2.54-6.6-3.24-10.16-.11-.56-.54-2-.35-2.29,0,0,5.12,1.12,4,.8a.51.51,0,0,0,.27-1Z" transform="translate(-181.04 -77.93)"/><path class="cls-5" d="M359.06,222.4c-1.66,1.74-3.12,3.14-5.61,3.56a.6.6,0,0,0-.27,1,66.18,66.18,0,0,1,5.14,5.33c1.21.42,1.59,1.05,1.13,1.87a4.1,4.1,0,0,1-4.53-.69l-.84.85c1.3,1.25,2.74,2.35,4,3.6a2.62,2.62,0,0,1,1.71,1.76,6.81,6.81,0,0,1-4.71.74.6.6,0,0,0-.52.9,13.89,13.89,0,0,0,6.15,6c.69.34,1.3-.69.61-1-1.42-.7-3.64-1.64-4.15-3.23-.8-2.46-1.56-.18.49-1.37,1.22-.71,2.55-.82,3.82-1.7a.6.6,0,0,0,0-1,54.56,54.56,0,0,1-6.59-5.46c-.56-.54-1.33.26-.84.85,1.85,2.24,5,1.11,7.46.71a.6.6,0,0,0,.27-1c-1.35-1.31-6.92-5.34-6.7-7.14-.05.42,4.72-3.56,4.8-3.64.53-.56-.32-1.4-.85-.85Z" transform="translate(-181.04 -77.93)"/><path class="cls-2" d="M327.74,187c2.6,7.1,4.1,14.61,3,22.17-.94,6.33-4.18,11.63-6.5,17.48-4.58,11.57-5.05,24.28-3.61,36.52.64,5.45,9.28,5.51,8.63,0-1.55-13.13-.69-25.89,5-37.94a50.55,50.55,0,0,0,1.83-40.52c-1.9-5.17-10.24-2.94-8.33,2.29Z" transform="translate(-181.04 -77.93)"/><path class="cls-5" d="M329,184.85c1.35,2.76,3.61,5.75,6.93,5.66l-.23-.86a6.2,6.2,0,0,1-5.15.9c-.44-.25-.81.23-.64.64a11.84,11.84,0,0,0,3,4.73c-.05,0,2.26,1.47,2.19,1.24l.11,0q.66,1.43-3,.81a.48.48,0,0,0-.68.53c.66,4.53,1.78,6.47,6.32,7.37.58.11.83-.79.25-.9-1.33-.26-7-3.87-5.52-5.84.08-.11,4.07-1.69,4.19-1.75a.47.47,0,0,0-.11-.85c-3.27-.68-4.78-3-6-5.85l-.63.63c2,1.16,4.12,0,6.09-.9.42-.2.2-.88-.24-.87-3,.08-4.95-2.79-6.13-5.2-.26-.53-1.07-.06-.8.47Z" transform="translate(-181.04 -77.93)"/><path class="cls-5" d="M335.93,208.88c-1.26-.5-2.7-.62-3.78-1.56-.26-.22-.78-.1-.75.31.25,2.69.35,5.43.76,8.09a27.11,27.11,0,0,1,.72,3.16c-.27,1.59-4.61-8.37-2.78-3a.44.44,0,0,0-.86.11,19,19,0,0,0,.92,7.14,13.71,13.71,0,0,0,1,2.47c-.44,1.11-3.07-3.05-3.36-3.5s-.86-.24-.82.22c.26,2.45,1.33,5.79,1.12,8.14,0,.44,1,.07.78.77l.09.07q1.71.71-3.25-.24a.44.44,0,0,0-.84,0,9.94,9.94,0,0,0,.57,7.58c.22.52,1,.07.76-.45.59,1.38-2.06-5.47-.68-5.41-.25,0,1.69.9,1.63.89,1.47.16,2.52-1.32,3.27-2.32a.45.45,0,0,0-.26-.65c-1.58-.37-2-7-2.36-7-.08,0,4,3.42,4.33,3.59a.44.44,0,0,0,.6-.6c-.57-1.08-3.69-9-3-9.26-.51.22,4.46,3.45,4.09,3.24a.44.44,0,0,0,.6-.6,21.4,21.4,0,0,1-1.69-7.57c-.06-.67-.6-3.27-.36-3.57s2.38.42,3.34.8c.53.2.76-.65.23-.85Z" transform="translate(-181.04 -77.93)"/><path class="cls-5" d="M326,241.6a9.16,9.16,0,0,1-4.8,2.72c-.35,0-.7.43-.45.77,1.91,2.63,3.86,5.21,5.89,7.75L327,252c-1.49.12-4.1.72-5.21-.76l-.81.63c1.2,1.49,7.5,6.82.43,5.54-.34-.06-.8.23-.63.63a12.16,12.16,0,0,0,4.69,5.89c.56.37,1.07-.53.52-.89-1-.64-2.85-1.93-3.17-3.11-.44-1.61-.4-.71.45-1.31s2.53-.68,3.45-1.22a.52.52,0,0,0,.1-.81,47.91,47.91,0,0,1-5.11-5.45c-.36-.46-1.16.15-.81.62,1.55,2.07,3.67,1.47,6.1,1.27a.52.52,0,0,0,.37-.88c-.95-1.2-5.33-5.61-4.9-6.88.06-.16,4-2.64,4.26-2.9.49-.46-.24-1.19-.73-.73Z" transform="translate(-181.04 -77.93)"/><path class="cls-2" d="M337.4,172.18v86.69c0,6.44,10,6.45,10,0V172.18c0-6.43-10-6.44-10,0Z" transform="translate(-181.04 -77.93)"/><path class="cls-5" d="M339,170.8c.93,3.5,2.9,7.32,6.68,8.12v-1a7.92,7.92,0,0,1-6.27-.44.54.54,0,0,0-.9.52,13.77,13.77,0,0,0,2.37,6.06c.27.33.94.77,1.12,1.14l1.19.84q1.89.6-3.73,0c-.35-.26-.78.09-.81.46-.35,5.35.57,7.62,5.55,9.81.63.28,1.18-.65.55-.93-1.78-.78-4.07-1.86-4.85-3.84,0,.05-.58-3.81-.22-4a5.73,5.73,0,0,0,1.74.16c1.22-.22,2.38-.59,3.58-.9.42-.11.56-.79.13-1-3.6-1.63-4.79-4.39-5.58-8l-.9.52c2.08,1.81,4.77,1.16,7.32.72a.54.54,0,0,0,0-1c-3.46-.73-5.15-4.41-5.93-7.36a.54.54,0,0,0-1,.28Z" transform="translate(-181.04 -77.93)"/><path class="cls-5" d="M344.32,196.59c-1.69-.08-3.36.32-5-.33-.46-.18-.73.39-.57.75a99.72,99.72,0,0,0,4.13,9.2c.38.67,1.5,1.86,1.73,2.48.51,1.41-6.42-5.43-4.56-2.56a.51.51,0,0,0-.93.39,20.17,20.17,0,0,0,3.36,7.08,31.25,31.25,0,0,0,2.33,2.62c-.45.79-4.87-2.38-5.23-2.66a.51.51,0,0,0-.8.62c1,2.22,1.87,5.87,3.53,7.6a7.52,7.52,0,0,1,.82.76l1,.37q2.22.28-3.88.81a.52.52,0,0,0-.87.36,10.24,10.24,0,0,0,3.27,7.86c.45.48,1.17-.24.72-.72s-4.16-4.74-2.67-5.52c-.51.27,2.43.33,2.17.38,1.66-.33,2.42-2.27,2.94-3.62a.51.51,0,0,0-.49-.64c-3,.27-4.68-6.07-5.63-8.16l-.8.62a14.47,14.47,0,0,0,7.62,3.27.51.51,0,0,0,.36-.87,23.07,23.07,0,0,1-5.22-6.29c-.45-.86-.82-3.16-1.83-2.81-.44.16,2.49,1.5,2.12,1.34a16.64,16.64,0,0,0,4.05,1c.47.08.89-.47.5-.85-2.67-2.55-3.92-5.9-5.37-9.22-.22-.5-1-1.86-.8-2.14s3.67-.1,4-.08c.65,0,.65-1,0-1Z" transform="translate(-181.04 -77.93)"/><path class="cls-5" d="M344.84,232.13a9.12,9.12,0,0,1-5.91,2.68.6.6,0,0,0-.52.9c2.16,3.07,4.38,6.08,6.69,9l.42-1c-1.67,0-5.14.56-6.22-1.21l-.94.72c.93,1.19,2.66,2.72,3.38,4L343,248.5a3.44,3.44,0,0,1-4.42.88c-.4-.1-.91.29-.74.74a14.2,14.2,0,0,0,5.35,6.89c.64.44,1.24-.6.61-1-1.09-.75-4.32-3-4-4.4.45-1.77-1.75.38,1.14-.61a27.81,27.81,0,0,0,4-1.19.6.6,0,0,0,.12-.94,56,56,0,0,1-5.87-6.44c-.42-.54-1.29.16-.94.73,1.54,2.51,4.66,1.86,7.26,1.81a.61.61,0,0,0,.42-1c-.79-1-5.94-6.75-5.49-8,.16-.41,4.47-2.36,5.24-3,.6-.48-.25-1.32-.85-.85Z" transform="translate(-181.04 -77.93)"/><path class="cls-3" d="M344.8,168.58c.54,0,1.44.15,1.89-.46a19.75,19.75,0,0,0,1-2c.86-1.5,2.68-2.1,4.15-3,4.5-2.75,6-9,4.46-14-.77-2.61-1.87-3.55-2.15-3.74a5.51,5.51,0,0,0-4.07-.73h0C343.82,165.38,344.8,168.58,344.8,168.58Z" transform="translate(-181.04 -77.93)"/><path class="cls-4" d="M344.8,169.83a3.9,3.9,0,0,0,2.78-.83c.95-.69,1.72-2.81,2.55-3.49s1.93-1,2.8-1.62a12.47,12.47,0,0,0,4.95-8.34c.85-5.38-1.06-13-7.84-12.13a1.32,1.32,0,0,0-1.2.92c-2,6.64-4.06,13.41-5,20.29a11.23,11.23,0,0,0-.2,4.28,1.25,1.25,0,0,0,2.41-.66c-.83-3,1.54-9.84,2.4-13.2q.55-2.1,1.14-4.2c.21-.74.82-4.79,1.16-5l2.78.66a6.66,6.66,0,0,1,1.57,3,12.39,12.39,0,0,1,.49,4.53c-.28,4-2.29,6.58-5.53,8.72a14,14,0,0,0-2.45,1.58c-.77.77-1.51,3-2.77,3A1.25,1.25,0,0,0,344.8,169.83Z" transform="translate(-181.04 -77.93)"/><path class="cls-3" d="M261,141.74c-1-.19-3.86.07-5.13-.05a1.07,1.07,0,0,0-.75.16,1.19,1.19,0,0,0-.34.77,32.16,32.16,0,0,0,4.9,22.67c1.53,2.31,2.69,3.73,4.45,4.05a6.22,6.22,0,0,0,5.17-1.93C275.29,161.28,265.39,142.61,261,141.74Z" transform="translate(-181.04 -77.93)"/><path class="cls-4" d="M261,140.49c-1.9-.16-5.48-.81-7,.73-2.3,2.39-.84,9.88-.29,12.75,1.12,5.82,5.54,19.39,13.81,16.1,6.33-2.52,5.18-10.57,3.45-15.7-1.51-4.5-4.58-12.24-9.68-13.83-1.54-.48-2.2,1.93-.66,2.41,3,.94,5.12,5.65,6.36,8.25,1.74,3.61,3.48,8.27,2.72,12.35-.17.91-.5,2.41-1.33,3l-6.13.21a22.05,22.05,0,0,1-1.95-2.75,30.56,30.56,0,0,1-3.84-9.14,32.64,32.64,0,0,1-.81-9.08c.13-3.41-.22-2.81,2.25-2.81,1,0,2-.06,3.06,0C262.63,143.13,262.62,140.63,261,140.49Z" transform="translate(-181.04 -77.93)"/><path class="cls-3" d="M288.81,91.82c-9.28,2.7-17.36,5.17-22.6,12.63A26.33,26.33,0,0,0,261.78,116c-2.6,15.46-1.18,31.74,5.15,46.08s17.77,26.58,32.14,32.84c6.85,3,14.82,4.56,21.72,1.72,4.68-1.92,8.37-5.67,11.47-9.67,10.19-13.2,15.1-29.78,17.52-46.28,2.14-14.62,2.09-24-3.82-33.67-9.26-15.15-27-18.28-30.59-18.81C306.1,86.79,299.2,88.8,288.81,91.82Z" transform="translate(-181.04 -77.93)"/><path class="cls-4" d="M288.48,90.61c-10,2.92-20.32,6.4-25.26,16.41s-4.63,24.09-3.15,35c3,22.36,16.17,43.57,37,53.32,10.3,4.83,21.91,6.06,30.94-1.9,8.6-7.58,14.07-19,17.69-29.65a123,123,0,0,0,6.61-36.21c.21-9.63-2.45-18.71-8.83-26.09-6-7-14.64-11.49-23.54-13.67-10.85-2.67-20.93-.27-31.45,2.78a1.25,1.25,0,0,0,.67,2.41c9.08-2.63,18.07-5.13,27.57-3.34a47.56,47.56,0,0,1,16.84,6.58c7.82,5,13.77,12.91,15.57,22.13,1.95,10.07-.09,21.11-2.16,31-4,19.21-15.57,52.77-41,46.56-20.59-5-35.85-24.4-41.35-44.05-3.41-12.19-4.18-26.44-1-38.78,3.24-12.53,14.19-16.8,25.5-20.11A1.25,1.25,0,0,0,288.48,90.61Z" transform="translate(-181.04 -77.93)"/><path class="cls-1" d="M291.83,86c23-7.9,48.46.08,61.29,21.13,1.67,2.74,6,.23,4.32-2.52-13.95-22.88-41.78-32.07-66.94-23.43-3,1-1.73,5.87,1.33,4.82Z" transform="translate(-181.04 -77.93)"/><path class="cls-1" d="M291.16,81c-6,0-12.69-.92-18.63,0-4.39.7-7.69,4.76-10.63,7.8-7.56,7.8-13.65,17-15.44,27.92-.52,3.15,4.3,4.5,4.82,1.33,1.57-9.51,6.53-17.57,13-24.54,3.2-3.45,6.59-7.65,11.61-7.64s10.16.07,15.23.1c3.22,0,3.23-5,0-5Z" transform="translate(-181.04 -77.93)"/><path class="cls-2" d="M296.62,88.87l-12.52.57c-2.94.13-7,.73-9.37-1.36-4.84-4.21-11.94,2.83-7.07,7.07,7.76,6.76,19.53,4.15,29,3.72,6.4-.3,6.44-10.3,0-10Z" transform="translate(-181.04 -77.93)"/><path class="cls-2" d="M321,102.16l22,7.87c3.18,1.14,7.59,1.88,9.94,4.47,2.21,2.43,3.09,6.58,3.88,9.64,3.68,14.15,5.12,29.18,7.4,43.61,2.41,15.23,1.54,29.39-.19,44.63a249.34,249.34,0,0,0-.89,46.76c.48,6.38,10.49,6.43,10,0a264,264,0,0,1,1.34-50.59c1-8.24,1.94-16.5,1.58-24.81-.36-8.14-1.8-16.21-3.09-24.24q-2-12.45-4-24.89c-1.2-7.4-2.37-14.85-5.49-21.72s-8.41-9.13-15.08-11.52l-24.7-8.85c-6.07-2.18-8.69,7.48-2.66,9.64Z" transform="translate(-181.04 -77.93)"/><path class="cls-5" d="M324,93.71a12.13,12.13,0,0,0-2.75,7.6.55.55,0,0,0,.92.39c1.23-1.18,2.82-3,4.56-3.2,2-.2,1.82-.43,1.44,2.42a.55.55,0,0,0,.92.38c.46-.56,2.54-3.47,3.63-3,.24.09-.35,4.83-.37,5.1a.56.56,0,0,0,.4.52,10.6,10.6,0,0,0,4.2,0c2.28-.38,1.9-.25,2.41,2.33a.55.55,0,0,0,.9.24c6-4.68,1.81-.68,4.74,1.51,2.31,1.72,4.69-.23,5.81-2.23l-1-.42-1,2.48a.54.54,0,0,0,.37.66l8,2.5.14-1.06a13.88,13.88,0,0,0-5.42.92.54.54,0,0,0,.14,1.06c1,.08,6.21.79,6.51,1.59-.1-.28-.81,2.38-.81,2.4.44,3.67,5.58,1.6.85,4.71a.53.53,0,0,0-.19.73c.46.62,1.7,1.74,2.11,2.33,1.2.26,1.51.86.94,1.78l-2.92,2.46a.54.54,0,0,0,.11.84c.63.38,4.79,2.32,5.06,3,.68,1.71-.89,2.16-2.13,3.18a.55.55,0,0,0,.11.85c1,.49,3.87,1.27,4,2.76,0,.63-2.91,2.88-3.3,3.27a.54.54,0,0,0,.24.9c1.66.33,4.32.67,4.68,2.8.23,1.31.61-.29-.9,1.4a21.13,21.13,0,0,0-2.85,3.41.55.55,0,0,0,.46.81c5.79.71,3.39,5.45,3.31,8.85,0,.46.79.75.85,1.17.47,3.1,0,5.52-2.36,7.39-.3.24-.13.66.11.85,1.69,1.27,3.7,2,2.46,4.33a.54.54,0,0,0,.32.79l6.36,1.74v-1l-8.85,3.09a.54.54,0,0,0,0,1,25.36,25.36,0,0,1,7.51,4.75l.52-.9a3.77,3.77,0,0,0-4.66,2.41,4.75,4.75,0,0,0,.14,3.38c.4,1.07,3.67,5.92-.22,1.4-.41-.47-1.16.13-.85.65.43.73,3.3,4.51,3.06,5.25.17-.53-3.39.05-3.33,0a.54.54,0,0,0-.37.67,50.17,50.17,0,0,0,4.05,8c.28.44,2.14,2.91,2.09,3-.82,1.76-5.26-.65-6.06-1.17-.49-.32-.94.29-.74.74l5.19,11.43.85-.65-5.92-5.36c-.37-.33-1.09,0-.9.53.67,1.88,2.33,4.71,2.38,6.69,1.14,1.44.79,2.25-1.07,2.41a12.4,12.4,0,0,1-2.77-.94.54.54,0,0,0-.66.66,66,66,0,0,0,4.95,9.65l.74-.74-4.44-2.3a.54.54,0,0,0-.79.61A38.46,38.46,0,0,1,367,239.73a14.14,14.14,0,0,1,0,3.56c.26,2.07-.06,2.33-1,.79a2.63,2.63,0,0,1-1.1-2.44l-.9.52c.89,1,4.55,4.29,4.42,5.15a21.41,21.41,0,0,0-2.62,2c-2.3,3.35-.16,7.19,1.68,10.18.36.59,1.3.05.93-.54-1.6-2.61-5.7-10.23,1.32-10.68a.55.55,0,0,0,.38-.92l-5.35-6c-.39-.44-1,0-.9.53a8.32,8.32,0,0,0,2.92,5.28.54.54,0,0,0,.92-.38,39.2,39.2,0,0,0,0-10.71c-.17-1.13-1.13-3.33-.94-4.42a1,1,0,0,1-.11-1.17l3,1.53a.54.54,0,0,0,.73-.74c-1-1.63-4-5.3-3.81-7.2.12-1.48.07-.74,1.8-.47a13.33,13.33,0,0,0,2.34.18.54.54,0,0,0,.52-.68l-3.57-10-.9.53,5.92,5.35a.54.54,0,0,0,.84-.65l-5.19-11.44-.73.74a11,11,0,0,0,8.22,1.76c.45-.06.45-.62.24-.9a47.94,47.94,0,0,1-3.94-5.68l-.87-1.54c-1.46-1.61-.91-2.79,1.67-3.52.45.17.83-.41.6-.79l-3.89-6.57-.85.65a4.57,4.57,0,0,0,4.24,1.81.55.55,0,0,0,.38-.92,6,6,0,0,1-1.88-2.41q-2.89-3,2.48-5.39c.49.09,1-.52.53-.91a27.16,27.16,0,0,0-8-5v1l8.85-3.1a.54.54,0,0,0,0-1c-1.86-.52-6.21-.63-4.85-3.13a.56.56,0,0,0-.19-.74c-2.29-1.73-3-1.54-1.68-3.86.6-1.07,1.22-1.23,1.63-2.44.91-2.65-1-5.63-1.19-8.28-.18-2.06.42-3.3-1.35-5.11.19.19-2.54-1.93-2.32-1.44-.69-1.56,2.9-3.23,4.1-3.76a.54.54,0,0,0,0-.94l-1.84-2.31a.54.54,0,0,0-.37-.67c-.64-.12-2.95-.18-3-1.06-.05-.58,2.95-2.91,3.31-3.27a.55.55,0,0,0-.11-.85c-1-.48-3.47-1.1-3.63-2.18s1.45-1.85,2.28-2.52a.55.55,0,0,0-.11-.85c-.64-.38-4.8-2.32-5.06-3-.74-1.84,1.64-2.85,2.8-3.82a.55.55,0,0,0-.11-.85,4.57,4.57,0,0,1-3.22-3.4l2.42-1.58a.55.55,0,0,0-.13-1q-3.14-.11-2.64-4.11c.4-.14.58-.76.13-1a21.73,21.73,0,0,0-8.08-2.25l.14,1.06a9.73,9.73,0,0,1,5.14-.88.54.54,0,0,0,.14-1.06c-2.31-.72-7.88-1.16-6.66-4.31.22-.58-.69-.94-1-.42l-4.6-1.1a.55.55,0,0,0-.61-.79c-3.51.7-4.21,2.93-5.07-1.39a.54.54,0,0,0-.79-.32c-1.77,1.29-4.56,1.59-5.19-.73-.29-1,.23-3.27.3-4.25a.54.54,0,0,0-.81-.47c.5-.36-3.23,2.32-2.63,2.07-1.43.59-1.19,2.47-.71-1.19.05-.35-.38-.61-.68-.52a18.48,18.48,0,0,0-4.77,2.1,13.19,13.19,0,0,0-1.29.93c-.62.71-.78.59-.47-.35a7.06,7.06,0,0,1,2.21-4.66c.41-.54-.34-1.31-.77-.76Z" transform="translate(-181.04 -77.93)"/><path class="cls-2" d="M265.14,109.9a35.39,35.39,0,0,0-24.9,23c-2.12,6.09,7.54,8.71,9.64,2.66a25.11,25.11,0,0,1,17.92-16c6.24-1.55,3.6-11.19-2.66-9.65Z" transform="translate(-181.04 -77.93)"/><path class="cls-5" d="M267.75,112.76l-.16,8.35,1.06-.14a21,21,0,0,0-3.95-7.68.54.54,0,0,0-.9.24c-.18,1.21,0,3.39-.65,4.36-.79,1.21-.57.66-1.26-.72-.59-1.16-.63-2-1.46-3.1a.54.54,0,0,0-.9.24c-.21,1.45-.08,4-.77,5.3q.3,3.23-1.65.62c-.16-.48-.34-1-.53-1.42-.8-1.2-.92-2-2.24-2.8a.55.55,0,0,0-.81.47c-.24,2.49-.45,5-.59,7.5-.09,1.44.9,4.88-1.38,3-1.52-1.27-1.64-3.17-3.62-4.21a.54.54,0,0,0-.81.46c-.14,1.48.54,4.29.06,5.56-.6,1.65-1.29.51-3.07.57a.56.56,0,0,0-.52.4c-.45,2.33,1,4.57,2.27,6.37.4.56,1.34,0,.93-.54-1.73-2.37-3-5.54,1.24-4.14a.54.54,0,0,0,.66-.66c-.14-.6-1.3-5.72-.64-6,.9-.4,2,1.83,2.29,2.25a12.5,12.5,0,0,0,2.62,3.09c.35.26.8-.1.81-.47.08-2.51.18-5,.35-7.51.15-2.09-.38-5.4,1.77-2.06,1,1.5.94,2.7,2.6,3.71a.54.54,0,0,0,.79-.32c.25-1.75.37-3.58.77-5.3.69-3.07.21-1.57.91-.13s.57,2.21,2,3.11a.53.53,0,0,0,.79-.32c.18-1.21.27-5.23,1.25-4.9,1.58.52,2.17,4,2.56,5.37a.54.54,0,0,0,1.06-.15l.16-8.35a.54.54,0,0,0-1.08,0Z" transform="translate(-181.04 -77.93)"/><path class="cls-2" d="M336.54,115.34c5.6,6.55,12.19,13,16.54,20.49,4.06,7,5.2,15,5.28,23,.18,18.08-2.81,36.44-4.54,54.41-.59,6.15,9,6.11,9.61,0l3.06-31.76c.88-9.19,1.95-18.46,1.28-27.7-.61-8.55-2.63-17-7.29-24.27-4.83-7.56-11.33-14.18-17.15-21-4-4.7-10.79,2.12-6.79,6.8Z" transform="translate(-181.04 -77.93)"/><path class="cls-5" d="M337.46,115.73a27.74,27.74,0,0,1,2.62-3.57,1.77,1.77,0,0,0-.16,1c.35,1.73-.15,4.1-.08,5.9a.53.53,0,0,0,1,.26c1.71-2.24,3.26-5.39,3.7-1.58a59.52,59.52,0,0,1,0,6.94.53.53,0,0,0,.89.37l2.73-2.16c.9-1.43,1.5-1.5,1.8-.22,1.44,1.62,0,5.25-.49,7a.54.54,0,0,0,.36.64c2.35.85,3.78.49,6.13.75.26,0,1.45-.54,1.63-.4,1.34,1-.21,4.07-.64,5.1a.52.52,0,0,0,.36.64c4.4.81,4,1.19.32,2.54a.53.53,0,0,0,0,1c3.63,1.15,6.53,6.54,3.65,9.72.27-.3-2.46,1.93-1.51,1.13a.53.53,0,0,0,.1.82c1.85,1.14,3.51,1.71,3.54,3.87,0,1.13-.41,2.15-.16,3.38a11.34,11.34,0,0,0,2,3.88c1.84,2.78-.29,2.46-3.16,2.19a.52.52,0,0,0-.36.88c1.14.93,4.57,3.36,3.64,4.55-.07.09-4.61.26-5.27.37a.52.52,0,0,0-.31.76c.83,1.21,2.44,2.72,2.8,4.09.5,1.9.27,1.62-1.25,2.31-.95.43-1.17-.27-2.12.54-1.54,1.32-.52,3.25.25,4.66.46.84,1.78,1.93,1.78,2.92,0,7.48-.79.84-1.79,2.28-.36.52-.78.22-1.15,1.1-1.39,3.27,4.87,6-.85,7.8a.52.52,0,0,0-.31.76q2.61,2.89.28,7.06a.53.53,0,0,0,.12.95q2.57,5.07-.86,7.7c-.47.47.26,1.2.74.73,1.63-1.59,3.6-3.54,3.38-6.05-.13-1.49-1.61-2.12-1.88-3.15.14.53,1.07-1.59,1.18-2.15.58-3.13-3-4.66,1.36-6a.54.54,0,0,0,.31-.76c-1.24-2.82-1.76-4.67-.48-7.38.53-1.12,1.18-1,1-2.61-.21-2.31-4.63-5.89-.49-7.33,1.49-.52,2,.44,3.24-.84a.52.52,0,0,0,.08-.62c-.28-.41-3.48-4.49-3.36-4.91.54-1.86,4.13-1.14,5.27-1a.52.52,0,0,0,.45-.78c-.18-.28-3.9-4.81-3.9-4.81-.09.46,4.12-.78,4.3-.85a.53.53,0,0,0,.22-.87c-2.68-2.68-5.56-6.11-2.94-10a.52.52,0,0,0-.18-.7c-1.53-.95-3.63-1.3-2.72-3.34.11-.25,1.7-1.1,2-1.47a4.74,4.74,0,0,0,.8-4.2,6.46,6.46,0,0,0-2.65-3.72c-2.57-1.86-4.27-1,.07-2.59a.53.53,0,0,0,.12-.95c-1-.59-3.51-1.36-3.92-2.23-.48-1,.6-4.18.67-5.53a.52.52,0,0,0-.66-.5c-1.52.64-5.75,2.1-7.19.77-.94-.86-.34-2.07-.32-3.05a32.49,32.49,0,0,0-.2-6.54c-.07-.43-.6-.45-.87-.23a28,28,0,0,1-2.73,2.15c-1.57.92-1.16,1.47-1.85-.08-.77-1.74,0-5.91,0-7.81a.52.52,0,0,0-.88-.37c-.43.34-3.7,3.56-3.79,3.51-.67-.31.28-6.12.36-6.76.06-.45-.6-.68-.88-.37a38,38,0,0,0-3.79,4.88c-.37.56.53,1.08.89.53Z" transform="translate(-181.04 -77.93)"/><path class="cls-2" d="M278.7,99.37c-5.58-.07-13.07-1.53-18.37.52-5,1.94-8.48,8.4-11.18,12.76a93.5,93.5,0,0,0-12.74,34.16c-1,6.29,8.6,9,9.65,2.65a86.31,86.31,0,0,1,9.18-27.4c2.08-3.82,4.46-8.53,7.58-11.62,2.87-2.84,11.79-1.12,15.88-1.07,6.44.08,6.44-9.92,0-10Z" transform="translate(-181.04 -77.93)"/><path class="cls-5" d="M277.86,101.47l-.06,3.06,1-.27a15.27,15.27,0,0,0-3.56-4.2.55.55,0,0,0-.92.38c-.17,2.32.49,4-1.91,3.57-1.63-.29-3.91-2.52-5.27-3.46a.54.54,0,0,0-.81.47c0,.42.42,5.49.34,5.53-1.63.81-5-2.89-6.25-4a.54.54,0,0,0-.92.38c0,.86,1.36,5.69,1.16,6.22-.47,1.23-5.33.24-6.54.16a.54.54,0,0,0-.46.81c1.12.91,1.08,2-.12,3.16,0,1.74-.74,2.5-2.21,2.27-.18.13-2.2,1-1.41.62a.55.55,0,0,0-.25.61c.29.83,2.36,4.95,2,5.67-.6,1.07-5.36.7-6.66.76a.54.54,0,0,0-.47.81c1,1.76,2.48,3.88,3,5.83.94.84,1,1.51.13,2l-3.27-.34a.53.53,0,0,0-.52.39c-.62,2.72,1.25,4.34-2.11,5.05a.55.55,0,0,0-.32.8c.54.83,2,2.25,2.06,3.15.12,1.55-2.2,1.58-3.92,1.59a.54.54,0,0,0-.46.81,16.89,16.89,0,0,0,3.63,5c.49.49,1.26-.27.76-.76-1-1-3.51-2.92-2-4a30.49,30.49,0,0,1,3.87-.51.55.55,0,0,0,.33-.8c-1.41-2.14-4-4.18-.39-4.94a.54.54,0,0,0,.33-.79c-3-5,2-3.59,3.69-3.41.46,0,.6-.49.47-.82-.43-1-3.78-6.43-3.48-7.39.48-1.53,5.43-.94,6.89-1a.54.54,0,0,0,.47-.81c-1-1.93-3.54-4.92-.91-6.6.36-.23,1.13.1,1.47-.16,1.08-.81,1.54-.35,2.13-1.76.48-1.16-.21-1.61-.26-2.71-.16-2.94-1-.36.06-1.33.63-.56,5.05.37,5.8.42.44,0,.63-.47.47-.81-.95-2-3.91-7.09.15-4.53,1.58,1,3.07,2.1,4.69,3a.55.55,0,0,0,.79-.61c-.34-2.39-1.69-5.48.87-5,1.57.27,4,2.5,5.36,3.33a.55.55,0,0,0,.81-.47c.06-.86-.14-3.4.39-3.89s2.1,2.19,2.48,2.83a.54.54,0,0,0,1-.27l.06-3.06a.54.54,0,0,0-1.08,0Z" transform="translate(-181.04 -77.93)"/><path class="cls-2" d="M259.64,123.13c-14.61,13.41-20.24,32.93-21.23,52.2-1.1,21.54,1.86,43.54,7,64.44,1.52,6.25,11.16,3.6,9.64-2.66a223.58,223.58,0,0,1-6.73-58c.43-18,4.74-36.34,18.44-48.92,4.75-4.36-2.34-11.42-7.07-7.07Z" transform="translate(-181.04 -77.93)"/><path class="cls-5" d="M260.62,124.29c0,1.6.06,3.2,0,4.8,0,.64,0,1.28-.05,1.92q.34,3.44-4.36-.61a.55.55,0,0,0-1,.42c.27,1.24,1.61,6.24,1.13,7-1.2,1.89-3.16-.18-4.63-1a.55.55,0,0,0-.81.47,60.91,60.91,0,0,0,.82,14.46l1-.42a33,33,0,0,0-6.13-6.26.55.55,0,0,0-.92.38,43.19,43.19,0,0,0,.54,13.8l.9-.52-3.28-3.1a.55.55,0,0,0-.92.38,22.45,22.45,0,0,0,1.58,7.88c.22.54,1.68,2.68,1.23,3.14-.79.8-4.28.35-5.46.37a.54.54,0,0,0-.38.92c1.94,2.43,7.7,3.82.84,6a.56.56,0,0,0-.4.52c0,2,.9,3.06,1.4,4.77.58,2,1.67.87-1.87,2.09a.54.54,0,0,0-.32.79c2.48,4,7.19,5.84-.35,7.15-.53.09-.49.92,0,1,1,.25,4.4.8,4.64,2.17.07.41-2.56,2.92-2.82,3.26a.54.54,0,0,0,.11.84c.38.29,3.92,2.17,4,2.35.44,1.77-2.85,4.2-3.91,5.2a.54.54,0,0,0,.24.9c1,.36,2.77.33,3.15,1.3s-2,4.2-2.53,5.19a.54.54,0,0,0,.46.81c1.3.09,4.45-.17,4.65.81a56.55,56.55,0,0,1-3.91,4.1c-1.1,1.24-3.13,3.19-2.73,5.13.26,1.24,1,1.52,2.15,1.84,2.51.7,1.76-.17,1.4,2.8a.54.54,0,0,0,.81.46l2.71-1.68a1.53,1.53,0,0,1-.14,1.36c.23,1.78-1.2,4.81-1.63,6.56a.54.54,0,0,0,.9.52c.36-.33,2.46-2.36,3.16-1.54.16.18-1.21,3.26-1.37,3.73-.4,1.16-1.23,2.93-.69,4.22a2.33,2.33,0,0,0,3.22,1.36c.66-.21.38-1.25-.28-1l-1.49-3.5.83-2.24,1.37-3.74c.15-.4-.29-.76-.66-.66A10.9,10.9,0,0,0,246,233.8l.9.52,2.34-9.36a.54.54,0,0,0-.79-.61c-1.16.72-4,3.38-2.35-.37.14-.33,0-.86-.46-.81q-2.64.89-3.47-2.49a30.65,30.65,0,0,1,2.53-3c1.47-1.65,3-3.19,4.63-4.71a.55.55,0,0,0-.38-.92c-1.15-.08-4.43.21-4.92-.76s2-4.23,2.49-5.16a.54.54,0,0,0-.46-.81c-4-.39-3.27-.66-1.38-2.75.89-1,1.69-2,2.5-3a.54.54,0,0,0-.33-.79c-5-1.68-4.46-2.91-1.16-6.14a.55.55,0,0,0-.11-.85,33.67,33.67,0,0,0-6-2.11v1a15.36,15.36,0,0,0,6.05-2.35.55.55,0,0,0,0-.93c-1.21-.89-4.55-3.1-4.13-4.63.25-.92,2-1.13,2.81-1.42a.55.55,0,0,0,.13-1c-5.93-3.74-.29-5.63,1.31-9a.55.55,0,0,0-.32-.79c-1.43-.35-5.12-1.3-2.43-2.12,1.14-.35,3.23-.07,4.38-.1a.53.53,0,0,0,.46-.81,21.77,21.77,0,0,1-3.2-7c-1.18-4.9-.08-2.85,1.82-1.06a.54.54,0,0,0,.9-.52c-.63-3.14-1.3-6.85-.84-10.1.12-.82-.25-1.79.78-2,.77-.13,4.72,5.14,4.6,5a.54.54,0,0,0,1-.42c-.5-2.81-2.07-8.64-.92-11.48.74-1.82-.26-1.2,2-.82.8.14,2.22.78,3,1a.55.55,0,0,0,.68-.52,63.1,63.1,0,0,0-1.3-9.07l-1,.42a7.12,7.12,0,0,0,5.69,3.48.54.54,0,0,0,.54-.54c.17-3.2.22-6.39.15-9.6a.54.54,0,0,0-1.08,0Z" transform="translate(-181.04 -77.93)"/><path class="cls-5" d="M287,102.11c-.4,1.85.07,3.56.09,5.41a4.88,4.88,0,0,1-.54,2.55c-.89,1.39-2.58,1.24-4,1.08-.69-.08-.69,1,0,1.08,2.06.24,4.17.08,5.13-2,1.13-2.49-.21-5.22.35-7.79.15-.68-.89-1-1-.29Z" transform="translate(-181.04 -77.93)"/><path class="cls-5" d="M284.83,103.75c-1.09,3.42-3.21,8.7-7.81,7.39a.54.54,0,0,0-.29,1c5.26,1.49,7.86-4.13,9.14-8.14.21-.66-.83-1-1-.29Z" transform="translate(-181.04 -77.93)"/><path class="cls-5" d="M274.69,112.3c-.46,2.91-2.56,11.6,3.27,10.59.68-.11.39-1.15-.29-1-4.41.77-2.27-7.23-1.94-9.27.11-.68-.93-1-1-.28Z" transform="translate(-181.04 -77.93)"/><path class="cls-5" d="M270.23,114.78c-.34,1.93-.71,4.09.25,5.91A4,4,0,0,0,274.1,123a.54.54,0,0,0,0-1.08c-3.6.08-3.24-4.49-2.83-6.81.12-.68-.92-1-1-.29Z" transform="translate(-181.04 -77.93)"/><path class="cls-5" d="M269.75,123.85c.62,3.5,1.16,7.53-2,10-.54.42.23,1.18.77.76,3.45-2.71,3-7.19,2.27-11.06-.12-.68-1.16-.39-1,.29Z" transform="translate(-181.04 -77.93)"/><path class="cls-5" d="M267.74,123.12c.64,3.46.27,8.69-4.3,9-.69,0-.69,1.12,0,1.08,5.32-.36,6.12-6.15,5.34-10.36-.13-.68-1.17-.4-1,.28Z" transform="translate(-181.04 -77.93)"/><path class="cls-5" d="M262.42,137.44c-.46,3.81-.18,9.75,5,9.82a.54.54,0,0,0,0-1.08c-4.53-.06-4.31-5.6-3.93-8.74.08-.69-1-.68-1.08,0Z" transform="translate(-181.04 -77.93)"/><path class="cls-5" d="M264,134.47a5.76,5.76,0,0,0,.63,5.89,4.34,4.34,0,0,0,5.11,1.16c.63-.28.08-1.21-.54-.93a3.32,3.32,0,0,1-4.14-1.48,5,5,0,0,1,0-4.36c.26-.64-.79-.92-1-.28Z" transform="translate(-181.04 -77.93)"/><path class="cls-5" d="M314.65,98.68a6.74,6.74,0,0,0,9.29,8.19c.63-.28.08-1.21-.55-.93a5.66,5.66,0,0,1-7.7-7c.21-.66-.83-.95-1-.28Z" transform="translate(-181.04 -77.93)"/><path class="cls-5" d="M316.68,98a7,7,0,0,0,12.24,4.89c.47-.51-.29-1.27-.77-.76A6,6,0,0,1,317.76,98a.54.54,0,0,0-1.08,0Z" transform="translate(-181.04 -77.93)"/><path class="cls-5" d="M326.15,110.89a9.07,9.07,0,0,0,10.65,5.4.54.54,0,0,0-.29-1,8,8,0,0,1-9.32-4.64c-.25-.64-1.3-.36-1,.28Z" transform="translate(-181.04 -77.93)"/><path class="cls-5" d="M328.85,106.32c-.46,2.68.21,5.56,3.11,6.45a4.7,4.7,0,0,0,5.73-3.07c.24-.66-.81-.94-1-.29a3.61,3.61,0,0,1-4.4,2.32c-2.28-.71-2.72-3-2.36-5.12.11-.68-.92-1-1-.29Z" transform="translate(-181.04 -77.93)"/><path class="cls-5" d="M338.7,118.79c-.14,2.31-.25,5,1,7a6,6,0,0,0,1.66,1.77c.86.64,2.13.87,2.89,1.64q2.89,3-.21,5.17a2.53,2.53,0,0,1-2.54,2.12c-.68.11-.39,1.15.29,1,3.24-.55,5.63-3.33,4.62-6.72a5.77,5.77,0,0,0-2.85-3.34c-1.87-1.19-3.09-1.8-3.64-4.16a15.7,15.7,0,0,1-.14-4.54c0-.69-1-.69-1.08,0Z" transform="translate(-181.04 -77.93)"/><path class="cls-5" d="M296.61,91.09a15.54,15.54,0,0,0-3.3,4.92l1,.27a37.89,37.89,0,0,1,.1-5.93.54.54,0,0,0-.69-.52,10.15,10.15,0,0,0-7.25,7.56l1,.14a27.74,27.74,0,0,1,1-5.56.55.55,0,0,0-.52-.68,5.56,5.56,0,0,0-6.18,3.45l1,.27.13-4a.54.54,0,0,0-.68-.52c-2.8.84-3.87,3-4.84,5.62l1.06.15c-.09-1.15.66-6-1.54-6-2.37,0-5,5.07-6,6.84l1,.27a17.41,17.41,0,0,1,.6-6.3c.08-.3-.17-.73-.52-.68a4.42,4.42,0,0,0-3.38,1.78c-.44.53.31,1.29.77.77,1.62-1.89,1.28.51,1.39,1.1.17,1,0,2.38.06,3.33a.54.54,0,0,0,1,.27c.57-1,2.41-4.75,3.61-5,2.31-.46,1.82,2.15,1.93,3.61a.54.54,0,0,0,1.06.14,5.23,5.23,0,0,1,3.36-4L281.7,95c0,.51.78.77,1,.28,1-2.78,2.19-3.63,3.69-2.56.91.22,1,.81.37,1.77a27.51,27.51,0,0,1-.31,3c-.05.61.9.72,1.06.14.37-1.44,2.55-6.88,4.94-5.87,1.23.52.68,2.87.79,4.48,0,.48.77.81,1,.27a13.78,13.78,0,0,1,3.13-4.7c.49-.49-.27-1.26-.76-.76Z" transform="translate(-181.04 -77.93)"/><path class="cls-2" d="M311.32,92.07c.36-3.15,17.79,2,19.64,3.07a144.26,144.26,0,0,0,17.73,8.49c5.86,2.49,11-6.12,5.05-8.63-5-2.13-10.45-3.91-15.12-6.74a44.83,44.83,0,0,0-14.89-5.62c-9.24-2-21-2.72-22.41,9.43-.73,6.39,9.27,6.33,10,0Z" transform="translate(-181.04 -77.93)"/><path class="cls-6" d="M342.68,262.71q-1.12,9.33-2.62,18.59c-.25,1.58,2.15,2.25,2.41.67q1.54-9.6,2.71-19.26c.2-1.59-2.31-1.58-2.5,0Z" transform="translate(-181.04 -77.93)"/><path class="cls-5" d="M308,93c-.09-.46-.82-8.49.91-8.35.92.07,1.52,3.11,1.76,3.73.14.38.78.6,1,.13.66-1.52,1-4.93,3-3.6.65.44.74,1.69,1.46,2.2a2.47,2.47,0,0,0,2.77.43c1.31-.52.41-.89,1.66-1.48,5.71-2.7,1.63.8,4.49,1.07,1.37.13,1-.08,2.36-.23.69-1,1.63-1.12,2.83-.28.06.45.14.89.23,1.33.28.39.21,1.08.53,1.5,1.19,1.54,2,.55,3.45.84,5.51,1.09,4.95,2.68,8.08,5.64a9.64,9.64,0,0,0,9.76,2.44c.67-.16.39-1.2-.29-1-4.86,1.14-7.68-1-10.64-4.67a13.32,13.32,0,0,0-2.11-2.38c-2.12-1.62-6.2-.34-7.65-2.16-.77-1,0-2.76-1.31-3.52-2-1.16-3,2-5.24,1.11-1.53-.62-1.4-2.37-3.48-1.83-1,.26-.92,1.05-1.78,1.42-5.16,2.21-2.79-.43-4.82-1.9-4-2.92-2.1,7.7-5.22-.45a.54.54,0,0,0-1-.13A13.91,13.91,0,0,0,307,93.29c.14.67,1.18.39,1-.29Z" transform="translate(-181.04 -77.93)"/><path class="cls-6" d="M261.78,257.45c1.29,6.8,2.33,13.62,3.1,20.5.18,1.58,2.68,1.6,2.5,0q-1.19-10.65-3.18-21.16c-.3-1.58-2.71-.91-2.42.66Z" transform="translate(-181.04 -77.93)"/><path class="cls-6" d="M286.2,372.59A116.19,116.19,0,0,1,320,366.86a1.25,1.25,0,0,0,0-2.5,118.34,118.34,0,0,0-34.5,5.82c-1.53.49-.88,2.91.66,2.41Z" transform="translate(-181.04 -77.93)"/><path class="cls-7" d="M338.23,330.15c2.55-3,7.28-2.09,11.14-2.83,3.37-.64,6.28-2.67,9-4.77,4.54-3.52,9.13-7.91,9.76-13.62a21,21,0,0,0-.33-5.65,102.35,102.35,0,0,0-7.9-26.34l-1-.92c-32.88,13-68.88,9-101.59.88l-2.31-.44a26.85,26.85,0,0,1-.85,9.93c-1.74,6.24-5.77,12-5.7,18.46.08,7.2,5.29,13.4,11.22,17.47,1.76,1.22,3.73,2.45,4.47,4.45l.26,1.07a49.33,49.33,0,0,1,3.5,21.9,50,50,0,0,1-10.64,27.2,13.58,13.58,0,0,0-8.88,9.91c31.74-5.69,64.1-11.44,96.48-8.64a160.66,160.66,0,0,1,26.67,4.51c-.62-8.47-10-12.73-14.8-18.65-11.55-14.15-5.51-31.94-4.37-37.36" transform="translate(-181.04 -77.93)"/><path class="cls-6" d="M339.12,331c2.95-2.75,7-1.72,10.59-2.5a21.53,21.53,0,0,0,7.91-3.86c4.61-3.33,9.54-7.51,11.22-13.16,1.87-6.29-.7-14.18-2.4-20.23-1.36-4.86-2.8-12.63-6.67-16.14a1.25,1.25,0,0,0-1.22-.32c-17.28,6.65-35.64,9-54.09,8.18-16.8-.73-32.74-4.61-49.15-7.75a1.26,1.26,0,0,0-1.58,1.21c.49,6.92-1.87,12.45-4.33,18.74-1.85,4.71-3,9.51-1.46,14.46,1.4,4.64,4.67,8.62,8.34,11.67,2.42,2,5.4,3.33,6.76,6.31a38.77,38.77,0,0,1,1.67,4.94,47.91,47.91,0,0,1-3.34,35.64c-1.73,3.34-3.46,6.48-6.68,8.46a16.1,16.1,0,0,0-7.54,9.84,1.27,1.27,0,0,0,1.54,1.54c40.34-7.24,82-14.4,122.49-4.13.7.18,1.69-.37,1.58-1.21C371.32,371.63,359,367.41,354.23,358c-5.05-10-3-20.58-.68-31,.34-1.56-2.07-2.23-2.42-.66-2,9-3.91,17.87-1.35,27a31.51,31.51,0,0,0,8.61,14.3c4.66,4.41,11,8.12,11.87,15.06l1.58-1.2c-40.93-10.39-83-3.19-123.82,4.13l1.54,1.54c1.39-5,4.21-6.31,8-9.05a7.57,7.57,0,0,0,1.77-1.92A51.1,51.1,0,0,0,265.15,366a50.14,50.14,0,0,0,2.79-31c-.72-3.16-1.58-7.18-3.32-10a13.64,13.64,0,0,0-3.8-3.41,32.08,32.08,0,0,1-7.89-7.48c-4.86-7-3-13.77,0-21,2.29-5.52,3.72-10.65,3.29-16.68l-1.59,1.2c13.08,2.5,25.87,5.72,39.17,7.06a154.36,154.36,0,0,0,44.65-1.5q5.28-1,10.46-2.49c1.71-.5,8.81-3.7,9.83-3.15.75.42,2.3,5.32,2.73,6.49.64,1.72,1.23,3.47,1.77,5.22a94.2,94.2,0,0,1,3,12.51c.93,5.53.69,10.1-3,14.48a35.6,35.6,0,0,1-9.84,8.12c-5.12,2.83-11.7.75-16.13,4.86-1.18,1.1.59,2.87,1.77,1.77Z" transform="translate(-181.04 -77.93)"/></g><g id="annoyed"><path class="cls-8" d="M303,167.82a9.45,9.45,0,0,0,3.82.56,9.73,9.73,0,0,0,2.55-.42,5.73,5.73,0,0,0,2.26-1.26c0-.13,0-.37,0-.68-.08-4.68-2.1-6.06-3.14-9.08a2.76,2.76,0,0,0-3.25-2.13,2.56,2.56,0,0,0-1.84,1.72c-3.05,6.68-3.43,8.2-2.31,9.78A4.22,4.22,0,0,0,303,167.82Z" transform="translate(-181.04 -77.93)"/><path class="cls-8" d="M302.86,168.42c2.42.83,9.2,1.29,9.43-2.4a12,12,0,0,0-1.69-6.24c-.85-1.6-1.37-4.1-3-5.09-4.27-2.65-6.13,4.34-7.08,7.09s-.75,5.17,2.17,6.58c.72.35,1.36-.73.63-1.08-2.07-1-2.41-2.42-1.84-4.43a34.92,34.92,0,0,1,1.68-4.24,9.46,9.46,0,0,1,.89-2c1.41-1.76,3.34-.09,4.11,1.12a18,18,0,0,1,2.73,6.66c.29,2.08-.51,2.71-2.51,3.14a9.92,9.92,0,0,1-5.21-.35C302.43,167,302.1,168.16,302.86,168.42Z" transform="translate(-181.04 -77.93)"/><path class="cls-9" d="M286,147.91l.14-.24-1.08.62c1.36-.09,3,1.22,3.81,2.13,1.73,1.82,0,2.68-1.79,3l1.41,1.84c1.12-1.81,2.59-3.48,1.21-5.6a5.93,5.93,0,0,0-5.39-2.15c-1,.19-3,1.44-3.22,2.58-.37,1.79,1.77,2.26,3.05,2.4.89.1,1.33-.87,1.21-1.58-.08-.51-.69-3.27-1-3.09l-1.26-2.16-6.7,4.67a1.27,1.27,0,0,0,0,2.16c2.62,1.77,11.22,5.94,12.36.7,1.21-5.59-5.72-3.5-8.58-2.64a1.26,1.26,0,0,0,0,2.41,31.82,31.82,0,0,0,6.67,1.22,1.26,1.26,0,0,0,.64-2.33c-1.81-1.22-3.92-1.13-5.86-2V152l2.34-.53a1.25,1.25,0,0,0,0-2.5h-3a1.25,1.25,0,0,0,0,2.5h3V149a10.22,10.22,0,0,0-3.61.87,1.26,1.26,0,0,0,0,2.16c1.9.85,4.13.84,5.86,2l.63-2.33a29,29,0,0,1-6-1.13V153c1.11-.33,2.23-.68,3.36-.93.92-.2,4,.26.92,1.05-2.25.57-5.75-1.6-7.46-2.75v2.16l6.7-4.67c1.3-.91.15-3-1.26-2.16-2.3,1.33-.48,4-.16,5.91l1.2-1.58-.29.62.45-.39c.74.15,1.38-.37,2.23.14,1.8,1.09.63,2.3-.2,3.64a1.26,1.26,0,0,0,1.41,1.83c11.8-2.1-2-12.5-3.9-9.18a1.25,1.25,0,0,0,2.16,1.26Z" transform="translate(-181.04 -77.93)"/><path class="cls-9" d="M280.61,147.18c-.88,1.79-4.36,1.91-4,4.49s4,2.58,5.56,3.84c1.22,1,2.94-.62,1.77-1.76-.69-.67-3.08-2.88-3-3.47l-.62,1.08c1.25-.76,4.28.6,5.91.08a2.32,2.32,0,0,0,1.86-2.59l-2.46.33c.48,3.14,5,3.5,7.48,3.42l-.88-2.13L290,152.55c-1.17,1.11.6,2.87,1.77,1.77l2.22-2.08a1.27,1.27,0,0,0-.89-2.14c-1.05,0-4.8.13-5.07-1.58-.21-1.39-2.53-1.07-2.45.33,0,.57-6.23-.88-7,1s2.57,4.66,3.65,5.71l1.77-1.76c-.43-.35-4.31-2.26-4.29-2.47s1.19-.59,1.33-.7a5.15,5.15,0,0,0,1.76-2.14c.71-1.44-1.44-2.7-2.16-1.26Z" transform="translate(-181.04 -77.93)"/><path class="cls-10" d="M277,151.66c2.43-2.09,6-6.19,9.61-5.19,2.59.72,4.65,4.29,6.24,6.22,1,1.24,2.78-.53,1.77-1.77-2.32-2.81-4.74-6.92-8.82-7.08-4.29-.17-7.6,3.5-10.57,6-1.22,1.05.56,2.82,1.77,1.77Z" transform="translate(-181.04 -77.93)"/><path class="cls-10" d="M284.87,146.47l-.52-.14a1.27,1.27,0,0,0-1.84.75c-.64,2.23-1.13,5.71,1.15,7.21,1.92,1.26,5.57.65,7.28-.79s1.11-5.37-.33-6.89a3.75,3.75,0,0,0-5.94.56c-1.31,2-1.11,5.13,1.23,6.26s4.9-.85,5-3.34c.07-2.27-1.87-4.38-4.24-3.74-2.79.76-3.18,3.91-1.9,6.11.67,1.13,1.92,2.11,3.22,1.31,1.07-.66,1.76-2.56,1.86-3.75.26-2.94-2.93-5-5.31-3l2.09.55c.21.51.64.62.8,1.25a4,4,0,0,0,.41,1.36l-.45,1.71a3.7,3.7,0,0,0,2.11-3.53c-.08-1.6-2.58-1.61-2.5,0a1.29,1.29,0,0,1-.87,1.37,1.26,1.26,0,0,0-.45,1.71A2.34,2.34,0,0,0,289,152c1.36-1,1.14-2.93.65-4.33a3.42,3.42,0,0,0-3.47-2.49,2.31,2.31,0,0,0-2,3,1.27,1.27,0,0,0,2.09.55c.88-.76,1.09.92,1,1.37a6,6,0,0,1-.44,1.05c-.34.58-.31.58.07,0-.13-.65-.61-.88-.4-1.63a1,1,0,0,1,1.63-.49c.65.74,0,2.59-1.13,2.12s-.6-2.54.19-3.09c1.42-1,2.17,1,2.22,2.07,0,.4.11,1.14-.17,1.48s-1.32.49-1.7.58c-1,.25-2.38.53-2.88-.62s0-2.78.29-3.87l-1.84.74a3.6,3.6,0,0,0,1.78.48,1.25,1.25,0,0,0,0-2.5Z" transform="translate(-181.04 -77.93)"/><path class="cls-10" d="M275.94,152.35c3.35,2.68,6.2,4.15,10.55,3.87,3.27-.21,6.59-1,7.84-4.33.28-.75-.92-1.08-1.2-.33-1.25,3.33-5.69,3.62-8.67,3.47s-5.31-1.71-7.63-3.56c-.62-.5-1.51.38-.89.88Z" transform="translate(-181.04 -77.93)"/><path class="cls-10" d="M273.49,145.6a9.16,9.16,0,0,0,3.77,4.36c.68.44,1.31-.64.64-1.08a7.74,7.74,0,0,1-3.2-3.61c-.29-.74-1.5-.42-1.21.33Z" transform="translate(-181.04 -77.93)"/><path class="cls-10" d="M276.43,144.23a8.4,8.4,0,0,0,4.63,3.33.63.63,0,0,0,.33-1.21,7,7,0,0,1-3.88-2.75c-.45-.66-1.53,0-1.08.63Z" transform="translate(-181.04 -77.93)"/><path class="cls-10" d="M279.08,142.44a8.43,8.43,0,0,0,4.14,3.63c.73.31,1.37-.76.63-1.08a7.48,7.48,0,0,1-3.7-3.18.62.62,0,0,0-1.07.63Z" transform="translate(-181.04 -77.93)"/><path class="cls-10" d="M272.13,147.7a5,5,0,0,0,4.09,4.12c.78.19,1.12-1,.33-1.2-1.45-.34-3-1.31-3.17-2.92-.1-.78-1.35-.79-1.25,0Z" transform="translate(-181.04 -77.93)"/><path class="cls-10" d="M277.85,153a10.18,10.18,0,0,0-2.06,3.41c-.28.76.93,1.09,1.2.34a8.7,8.7,0,0,1,1.74-2.87c.54-.6-.34-1.48-.88-.88Z" transform="translate(-181.04 -77.93)"/><path class="cls-10" d="M280.2,154.87l-1.09,3.48c-.25.77,1,1.1,1.2.33l1.09-3.48c.25-.76-1-1.09-1.2-.33Z" transform="translate(-181.04 -77.93)"/><path class="cls-10" d="M286.06,144.21a13.2,13.2,0,0,1-2.78-3.6c-.37-.71-1.45-.08-1.08.63a14,14,0,0,0,3,3.86c.59.54,1.48-.34.88-.89Z" transform="translate(-181.04 -77.93)"/><path class="cls-10" d="M284.57,158.55a2.2,2.2,0,0,1-.47-1.45,2.69,2.69,0,0,0-.05-1.38c-.3-.73-1.51-.41-1.2.33.2.49-.05,1.1,0,1.62a3.51,3.51,0,0,0,.62,1.51c.46.65,1.54,0,1.08-.63Z" transform="translate(-181.04 -77.93)"/><path class="cls-9" d="M326.42,145.19c-2-3.33-15.69,7-3.9,9.11a1.27,1.27,0,0,0,1.41-1.84c-.8-1.29-2.14-2.48-.2-3.58a3.24,3.24,0,0,1,1.8-.25.83.83,0,0,1,.66.3c.36.37.34.22-.07-.44l1.2,1.58c.32-2,2.15-4.54-.15-5.87a1.25,1.25,0,0,0-1.27,2.16l6.7,4.63v-2.16c-1.69,1.12-5.24,3.27-7.46,2.72-3.27-.82.27-1.16.92-1,1.13.25,2.25.59,3.36.93V149a28.93,28.93,0,0,1-6,1.12l.63,2.33c1.73-1.16,4-1.14,5.86-2,1.11-.5.56-1.93-.3-2.29a9.25,9.25,0,0,0-3.31-.73V150h3a1.25,1.25,0,0,0,0-2.5h-3a1.25,1.25,0,0,0,0,2.5,5.37,5.37,0,0,1,2.64.64l-.29-2.28c-1.95.87-4.05.78-5.86,2a1.26,1.26,0,0,0,.63,2.33,32.44,32.44,0,0,0,6.67-1.2,1.27,1.27,0,0,0,0-2.42c-2.82-.84-9.82-2.94-8.57,2.64,1.16,5.2,9.73,1.06,12.35-.69a1.27,1.27,0,0,0,0-2.16l-6.69-4.63-1.27,2.16c-.33-.2-.91,2.58-1,3-.12.71.32,1.68,1.21,1.59,1.22-.14,3.29-.53,3.07-2.23-.15-1.22-2.13-2.54-3.24-2.73a6.17,6.17,0,0,0-5.15,1.82c-1.75,2.15-.23,4,1,5.88l1.41-1.84c-1.78-.32-3.53-1.15-1.79-3,.87-.91,2.45-2.19,3.81-2.1l-1.08-.62.14.24a1.25,1.25,0,0,0,2.16-1.26Z" transform="translate(-181.04 -77.93)"/><path class="cls-9" d="M327.45,147a5.15,5.15,0,0,0,1.34,1.8c.26.22,1.75,1,1.75,1,0,.38-3.78,2-4.28,2.42L328,154c1.08-1,4.53-3.78,3.65-5.67s-7.06-.44-7-.94c.08-1.38-2.24-1.74-2.45-.33-.26,1.69-4,1.59-5.07,1.56a1.26,1.26,0,0,0-.88,2.13l2.21,2.07c1.18,1.09,2.95-.67,1.77-1.77L318,149l-.88,2.13c2.52.07,7-.26,7.48-3.4l-2.46-.33A2.31,2.31,0,0,0,324,150c1.64.51,4.66-.84,5.91-.08l-.62-1.08c0,.52-2.32,2.74-3,3.42-1.19,1.14.54,2.76,1.76,1.77,1.54-1.26,5.18-1.33,5.56-3.82s-3.06-2.63-4-4.45c-.72-1.44-2.88-.18-2.16,1.26Z" transform="translate(-181.04 -77.93)"/><path class="cls-10" d="M335,148.39c-3-2.54-6.29-6.16-10.57-6-4.07.16-6.5,4.23-8.82,7-1,1.23.74,3,1.77,1.77,1.57-1.89,3.72-5.46,6.24-6.15,3.69-1,7.16,3,9.61,5.13,1.22,1,3-.72,1.77-1.77Z" transform="translate(-181.04 -77.93)"/><path class="cls-10" d="M324.46,144.71l-.52-.13a1.26,1.26,0,0,0-1.83.75c-.7,2.36-1.12,6,1.47,7.34,1.89,1,5.52.38,7.07-1.07s.91-5.43-.58-6.88a3.78,3.78,0,0,0-5.92.85c-1.24,2.06-.88,5.14,1.52,6.14s4.72-1,4.78-3.4a3.51,3.51,0,0,0-4.24-3.71c-2.78.75-3.19,3.87-1.9,6.06.69,1.17,2.08,2.19,3.36,1.2a5.73,5.73,0,0,0,1.72-3.62,3.25,3.25,0,0,0-5.31-3l2.09.55c.21.52.63.62.8,1.24a4,4,0,0,0,.41,1.35l-.45,1.71a3.69,3.69,0,0,0,2.11-3.51c-.08-1.6-2.58-1.61-2.5,0a1.28,1.28,0,0,1-.87,1.35,1.25,1.25,0,0,0-.45,1.71,2.35,2.35,0,0,0,3.38.58c1.35-1,1.14-2.91.65-4.3a3.42,3.42,0,0,0-3.47-2.48,2.31,2.31,0,0,0-2,3,1.28,1.28,0,0,0,2.09.56c.87-.75,1.09.89,1,1.33a5.32,5.32,0,0,1-.44,1c-.3.5-.32.57-.08.21.23-.19.21-.4-.07-.62a2.06,2.06,0,0,1-.18-1.2,1,1,0,0,1,1.63-.48c.66.75,0,2.55-1.13,2.08s-.65-2.33,0-2.91c1.1-1,2.13.18,2.33,1.28.09.5.26,1.66-.11,2.09-.22.25-1,.37-1.28.46-.83.24-2.34.7-3,0-.91-1-.28-3.21,0-4.28l-1.84.75a3.59,3.59,0,0,0,1.78.47,1.25,1.25,0,0,0,0-2.5Z" transform="translate(-181.04 -77.93)"/><path class="cls-10" d="M333.39,150c-2.31,1.83-4.57,3.4-7.63,3.52s-7.42-.12-8.67-3.43c-.28-.75-1.49-.42-1.2.33,1.26,3.33,4.57,4.09,7.84,4.3,4.32.27,7.21-1.19,10.55-3.84.63-.5-.26-1.38-.89-.88Z" transform="translate(-181.04 -77.93)"/><path class="cls-10" d="M335.52,143.82a7.7,7.7,0,0,1-3.19,3.58c-.68.43-.06,1.51.63,1.08a9.13,9.13,0,0,0,3.77-4.33c.29-.75-.92-1.07-1.21-.33Z" transform="translate(-181.04 -77.93)"/><path class="cls-10" d="M332.71,142.16a7,7,0,0,1-3.88,2.73.63.63,0,0,0,.33,1.21,8.42,8.42,0,0,0,4.63-3.3c.45-.67-.63-1.3-1.08-.64Z" transform="translate(-181.04 -77.93)"/><path class="cls-10" d="M330.07,140.39a7.33,7.33,0,0,1-3.55,3.09c-.73.31-.41,1.52.34,1.21a8.74,8.74,0,0,0,4.29-3.67.63.63,0,0,0-1.08-.63Z" transform="translate(-181.04 -77.93)"/><path class="cls-10" d="M336.84,146.23c-.2,1.6-1.73,2.55-3.17,2.88-.79.19-.46,1.39.33,1.21a5,5,0,0,0,4.09-4.09c.1-.79-1.15-.78-1.25,0Z" transform="translate(-181.04 -77.93)"/><path class="cls-10" d="M331.49,152.39a8.37,8.37,0,0,1,1.74,2.83c.27.75,1.48.43,1.21-.33a10.43,10.43,0,0,0-2.06-3.39c-.55-.59-1.43.29-.89.89Z" transform="translate(-181.04 -77.93)"/><path class="cls-10" d="M328.82,153.67l1.09,3.44c.24.76,1.45.44,1.21-.33l-1.1-3.45c-.24-.76-1.45-.43-1.2.34Z" transform="translate(-181.04 -77.93)"/><path class="cls-10" d="M325,143.66a14,14,0,0,0,3-3.82c.37-.71-.71-1.35-1.08-.63a13.17,13.17,0,0,1-2.78,3.56c-.6.55.29,1.43.88.89Z" transform="translate(-181.04 -77.93)"/><path class="cls-10" d="M326.73,157.6a3.43,3.43,0,0,0,.61-1.41,3,3,0,0,0,0-.73c0-.24-.16-.57-.06-.8.31-.73-.77-1.37-1.08-.63a2.59,2.59,0,0,0-.12,1.41,2.13,2.13,0,0,1-.46,1.53c-.47.66.62,1.28,1.08.63Z" transform="translate(-181.04 -77.93)"/><path class="cls-4" d="M300.52,167.73a3.88,3.88,0,0,1,2.79.77c.65.48,1.27-.61.63-1.08a5.1,5.1,0,0,0-3.75-.89c-.79.11-.46,1.31.33,1.2Z" transform="translate(-181.04 -77.93)"/><path class="cls-4" d="M309.45,168.42a8,8,0,0,1,2.52-.31c.8,0,.8-1.22,0-1.25a9.44,9.44,0,0,0-2.85.35.63.63,0,0,0,.33,1.21Z" transform="translate(-181.04 -77.93)"/><path class="cls-5" d="M295.38,135.13l1-.64a10.92,10.92,0,0,1-1.81,4.3,17.84,17.84,0,0,1-1-4.32,6.2,6.2,0,0,0-.78,4.33c-1.77-2.23-3.67-4.53-6.37-5.87a22.18,22.18,0,0,1,3.43,5.31,20.09,20.09,0,0,0-13.6-3.19,16.18,16.18,0,0,1,9.4-2.18,35,35,0,0,1,10.11,2.18l1.59.59" transform="translate(-181.04 -77.93)"/><path class="cls-10" d="M295.65,135.6l1-.64-.79-.61a13.81,13.81,0,0,1-1.76,4.17l1,.13a25.91,25.91,0,0,1-1-4.32.55.55,0,0,0-1-.13,7.82,7.82,0,0,0-.85,4.6l.92-.38a22.46,22.46,0,0,0-6.48-6,.54.54,0,0,0-.65.85,26.16,26.16,0,0,1,3.34,5.2l.74-.73a21.47,21.47,0,0,0-13.87-3.27l.27,1c6.54-3.73,14.06-1.82,20.69.64.65.24.93-.81.29-1-6.93-2.57-14.73-4.41-21.52-.53-.44.25-.28,1.06.27,1a20.66,20.66,0,0,1,13.33,3.12c.48.3,1-.28.73-.74a27.47,27.47,0,0,0-3.51-5.42l-.65.85a22,22,0,0,1,6.26,5.78.54.54,0,0,0,.92-.38,5.89,5.89,0,0,1,.7-4.06l-1-.13a25.47,25.47,0,0,0,1,4.32.54.54,0,0,0,1,.13,14,14,0,0,0,1.87-4.42.54.54,0,0,0-.79-.61l-1,.64c-.57.38,0,1.31.55.93Z" transform="translate(-181.04 -77.93)"/><path class="cls-5" d="M316.58,133.36l-1-.64a11,11,0,0,0,1.82,4.3,18.33,18.33,0,0,0,1-4.32,6.19,6.19,0,0,1,.77,4.33c1.77-2.23,3.68-4.54,6.37-5.87a22.44,22.44,0,0,0-3.42,5.31,20.06,20.06,0,0,1,13.59-3.19,16.15,16.15,0,0,0-9.4-2.19,35,35,0,0,0-10.11,2.19l-1.59.58" transform="translate(-181.04 -77.93)"/><path class="cls-10" d="M316.85,132.9l-1-.64a.55.55,0,0,0-.8.61,14.5,14.5,0,0,0,1.87,4.42.55.55,0,0,0,1-.13,26.47,26.47,0,0,0,1-4.32l-1,.13a5.9,5.9,0,0,1,.71,4.06.54.54,0,0,0,.92.38,22,22,0,0,1,6.25-5.79l-.65-.84a27.63,27.63,0,0,0-3.51,5.42c-.22.46.25,1,.74.74a20.66,20.66,0,0,1,13.32-3.12c.55.06.71-.75.28-1-6.8-3.88-14.6-2-21.52.52-.65.24-.37,1.28.29,1,6.62-2.45,14.14-4.37,20.68-.63l.27-1A21.48,21.48,0,0,0,321.84,136l.74.73a27.08,27.08,0,0,1,3.34-5.2c.37-.45-.08-1.17-.65-.85a22.72,22.72,0,0,0-6.48,6l.92.38a7.86,7.86,0,0,0-.85-4.6.54.54,0,0,0-1,.13,26.59,26.59,0,0,1-1,4.31l1-.12a14.07,14.07,0,0,1-1.76-4.17l-.79.61,1,.64c.58.38,1.12-.55.54-.93Z" transform="translate(-181.04 -77.93)"/><path class="cls-11" d="M295,181.27a31.64,31.64,0,0,1,22.36,1.2c2.19,1,4.1-2.27,1.89-3.24A35.7,35.7,0,0,0,294,177.65c-2.3.71-1.32,4.33,1,3.62Z" transform="translate(-181.04 -77.93)"/></g><g id="Layer_5" data-name="Layer 5"><path class="cls-12" d="M384.23,422.44c-11.91,2.88-24.08,4.35-36.33,5.5a407.59,407.59,0,0,1-53,1.83c-18.88-.7-37.85-1.23-56.23-5.91-2.06-.53-3.93-1.73-6.21-1.49a7.48,7.48,0,0,1,1.1-4.2c7,3,14.59,3.74,22,4.84,23.76,3.5,47.76,3.29,71.71,2.72,17.92-.42,35.76-2.11,53.16-6.32a29.46,29.46,0,0,1,3-.4C384.4,420.05,384.2,421.26,384.23,422.44Z" transform="translate(-181.04 -77.93)"/><path class="cls-12" d="M236.15,410.84c5.85,1,11.66,2.28,17.55,3,7.89,1,15.84,1.79,23.78,2.44,16.79,1.36,33.64,1,50.44.58a279.73,279.73,0,0,0,49-5.46c1.23-.25,2.49-.43,3.73-.64a5.81,5.81,0,0,1,1.42,3.44c-5.84,1-11.66,2.17-17.54,3-8.13,1.18-16.3,2.08-24.54,2.55-12.57.71-25.13,1.48-37.74,1.26-18.42-.31-36.8-1.14-55-4.16-4.23-.71-8.39-1.79-12.58-2.69A7.67,7.67,0,0,1,236.15,410.84Z" transform="translate(-181.04 -77.93)"/><path class="cls-12" d="M378.69,406.18c-14.09,2.3-28.19,4.32-42.58,4.92-11.81.5-23.61,1.55-35.43,1.09-20.89-.81-41.89-1-62.27-6.06a8,8,0,0,1,1.83-3.4,272.46,272.46,0,0,0,46.38,5.34c17.07.53,34.21.73,51.25-.65,3.92-.31,7.86-.36,11.78-.8q13.61-1.55,27.05-3.89C377.37,403.88,378,405,378.69,406.18Z" transform="translate(-181.04 -77.93)"/><path class="cls-12" d="M384.76,430.49a17.8,17.8,0,0,1-5.17-1.89l5.18-1.93C384.77,427.94,384.76,429.21,384.76,430.49Z" transform="translate(-181.04 -77.93)"/><path class="cls-12" d="M275.58,439.59c-17.68-7.49-28.43-6.9-35.1-4.74-1.24.4-8.54,3.4-9.79,1.57-.46-.69.17-1.66.7-4.75a31.05,31.05,0,0,0,.45-4.54l9.31,1.41,26.29,4.79a265.22,265.22,0,0,0,30.7,1.4c6.82-.09,14.8-.69,30.76-1.9,3.93-.29,8.28-.64,35.68-3l15-1.27c4.17.71,5.16,1.37,5.17,1.89.06,2.08-18.33,2-43.41,7-18.23,3.63-20.24,6-31.56,6.68A91.68,91.68,0,0,1,275.58,439.59Z" transform="translate(-181.04 -77.93)"/><path class="cls-12" d="M332.85,446.91c-8.53-.23-17,.75-25.56.69s-16.78-.64-25.18-.75c-1.06-1.32-2.67-2.31-3.08-4,5.58.39,11.18.82,16.78,1.08,7.78.36,13.88.14,16.79,0a257.48,257.48,0,0,0,26.18-2.1l-4.12,3.51Z" transform="translate(-181.04 -77.93)"/><path class="cls-12" d="M325.29,452.45c-10,.33-20,.42-30,.16a14.62,14.62,0,0,1,4.33,3.69c7.09.06,14.17.16,21.24-.14A30.81,30.81,0,0,1,325.29,452.45Z" transform="translate(-181.04 -77.93)"/><path class="cls-12" d="M315.71,461.65c-4.39.2-8.78.23-13.18,0,.89,1.15,1.72,2.3,2.48,3.41h8.35A19.83,19.83,0,0,1,315.71,461.65Z" transform="translate(-181.04 -77.93)"/><path class="cls-13" d="M382.06,414.24a9.28,9.28,0,0,1,1.45,4.77,29.46,29.46,0,0,0-3,.4c-17.4,4.21-35.24,5.9-53.16,6.32-23.95.57-47.95.78-71.71-2.72-7.46-1.1-15.09-1.86-22.06-4.84a8.24,8.24,0,0,1,1.14-3.95c4.19.9,8.35,2,12.58,2.69,18.15,3,36.53,3.85,55,4.16,12.61.22,25.17-.55,37.74-1.26,8.24-.47,16.41-1.37,24.54-2.55C370.4,416.41,376.22,415.26,382.06,414.24Z" transform="translate(-181.04 -77.93)"/><path class="cls-13" d="M378.69,406.18a10,10,0,0,1,1.95,4.62c-1.24.21-2.5.39-3.73.64a279.73,279.73,0,0,1-49,5.46c-16.8.4-33.65.78-50.44-.58-7.94-.65-15.89-1.42-23.78-2.44-5.89-.76-11.7-2-17.55-3a14,14,0,0,1,2.26-4.71c20.38,5,41.38,5.25,62.27,6.06,11.82.46,23.62-.59,35.43-1.09C350.5,410.5,364.6,408.48,378.69,406.18Z" transform="translate(-181.04 -77.93)"/><path class="cls-13" d="M232.18,424.52l.3-2.15c2.28-.24,4.15,1,6.21,1.49,18.38,4.68,37.35,5.21,56.23,5.91a407.59,407.59,0,0,0,53-1.83c12.25-1.15,24.42-2.62,36.33-5.5,1,1.33.66,2.79.54,4.23l-5.18,1.93-32.13,4.77c-6.2.42-12.39,1.17-18.59,1.21-20.48.14-41,.67-61.43-1.25q-7.1-1.23-14.32-2.39c-5.21-.85-10.38-1.65-15.51-2.43l-5.77-1.38c.07-.76.15-1.52.22-2.27Z" transform="translate(-181.04 -77.93)"/><path class="cls-13" d="M376.7,402.73q-13.45,2.34-27.05,3.89c-3.92.44-7.86.49-11.78.8-17,1.38-34.18,1.18-51.25.65a272.46,272.46,0,0,1-46.38-5.34l2-3.35.6-.73.05-.08c5.29,1.18,10.53,2.64,15.89,3.47,16.58,2.57,33.35,2.84,50.15,2.88,9.82,0,19.64-.21,29.37-.95,12.11-.91,24.23-2.2,36-5.3v0c.21.25.42.5.64.74Z" transform="translate(-181.04 -77.93)"/><path class="cls-13" d="M230.38,433.28c-.12,1-.25,2.05-.36,3.07a1.46,1.46,0,0,1,1.53.7.3.3,0,0,1,0,.1,16.48,16.48,0,0,1,6.54-1.06,1.57,1.57,0,0,1,.86-.36c1.54-.16,3.08-.33,4.62-.48l.17,0,.85-.08C239.77,434.58,235,434,230.38,433.28Z" transform="translate(-181.04 -77.93)"/><path class="cls-13" d="M345.06,442.38c4.95-4.8,11.45-6.34,18.26-6.54a29,29,0,0,1,3.63-.45c1.07-.21,2.14-.41,3.19-.58,4.3-.69,11.41-1.68,14.3,2.55,1.69-.3,3.36-.6,5-.92l-4.69-5.95c-5.86,1-44.58,7.81-73.76,8.2-11.6.15-24.71-.33-24.71-.33q-12-.45-23.45-1.4a20,20,0,0,1,3.39,2,1.57,1.57,0,0,1,1.87.1c.28.22.56.44.86.65a1.46,1.46,0,0,1,2.27-.25c1.47,1.43,3.45,2.19,5.09,3.38a1.84,1.84,0,0,1,.25.23l2.45-.21c10.58.78,21.79,1.2,33.58,1.13,11.25-.07,22-.59,32.36-1.44A1.7,1.7,0,0,1,345.06,442.38Z" transform="translate(-181.04 -77.93)"/><path class="cls-13" d="M332.14,448.1l.71-1.19c-8.53-.23-17,.75-25.56.69-7.41,0-14.79-.49-22.18-.67A27.44,27.44,0,0,1,295,452.6c9.53.25,19.06.19,28.59-.1A29.54,29.54,0,0,1,332.14,448.1Z" transform="translate(-181.04 -77.93)"/><path class="cls-13" d="M317.75,457.94c.52-.59,1.05-1.17,1.6-1.72-7.08.25-14.16.12-21.24.07.14.21.28.43.41.65a26.78,26.78,0,0,1,5,4.79c3.69.13,7.37.11,11.06,0C315.7,460.28,316.84,459,317.75,457.94Z" transform="translate(-181.04 -77.93)"/><path class="cls-13" d="M312.27,465.1h-6.54a19.37,19.37,0,0,1,.91,1.95h0l.2,0,4.34.19A17.73,17.73,0,0,1,312.27,465.1Z" transform="translate(-181.04 -77.93)"/><path class="cls-14" d="M231.09,437.37c9.45-1.83,18.73-2.75,28.19-.43,8.23,2,16,5.72,23.44,9.63,9.51,5,17.6,9.88,22.26,19.86a1.52,1.52,0,0,0,1.3.74l5.62.4a1.45,1.45,0,0,0,1.29-.74c5.49-11.74,15.8-17.2,27.25-22.35,6.87-3.08,13.81-6.35,21.25-7.77a59,59,0,0,1,25.4,1.06c1.87.46,2.67-2.43.79-2.9a60.73,60.73,0,0,0-35.56,1.37c-11.17,4.05-23.41,9-32.59,16.7a32,32,0,0,0-6.23,7.11c-1.46,2.23-2.84,6.41-6.39,3.87-.78-.56-1.46-2.75-2-3.6a35.22,35.22,0,0,0-2.42-3.42c-5.83-7.13-15.33-11.47-23.38-15.41-7.47-3.66-15.28-7-23.54-8.32-8.57-1.4-17-.33-25.49,1.31-1.89.36-1.09,3.25.8,2.89Z" transform="translate(-181.04 -77.93)"/><path class="cls-14" d="M247.8,396.79c7.76,2.24,15.84,3,23.88,3.89,17,1.81,34.11,1.77,51.18,1.34a271.84,271.84,0,0,0,45.4-4.64c.64-.13.82-.39.56-.92,2.73-1,4.56-.26,5.49,2.21-11.73,3.1-23.85,4.39-36,5.3-9.73.74-19.55,1-29.37.95-16.8,0-33.57-.31-50.15-2.88-5.36-.83-10.6-2.29-15.89-3.47C243.67,396.08,245.48,395.91,247.8,396.79Z" transform="translate(-181.04 -77.93)"/><path class="cls-15" d="M311.53,412.52c-1.23-.73-6.52,2.62-6,6.5.49,3.59,5.69,5.61,6.76,4.68.59-.52-.37-1.71-.69-5C311.22,414.7,312.27,413,311.53,412.52Z" transform="translate(-181.04 -77.93)"/></g></svg>